<svg width="380" height="75" viewBox="0 0 380 75" fill="none" xmlns="http://www.w3.org/2000/svg">
<g clip-path="url(#clip0_10764_21052)">
<rect width="372.417" height="124.139" transform="translate(-2.09375 0.046875)" fill="#5F6062"/>
<g filter="url(#filter0_f_10764_21052)">
<path d="M380.024 56.2166C370.138 73.9562 288.397 73.7443 263.192 62.9355C237.987 52.1267 251.368 12.7289 261.253 -5.01069C271.139 -22.7503 339.622 -7.93265 364.826 2.87616C390.031 13.685 389.909 38.477 380.024 56.2166Z" fill="#1E1F20"/>
</g>
<g filter="url(#filter1_f_10764_21052)">
<path d="M-34.3259 23.9685C-30.9737 -4.12444 46.2206 -47.5458 73.642 -47.1213C101.063 -46.6969 101.709 11.1109 98.3565 39.2038C95.0043 67.2967 25.4001 84.8516 -2.02129 84.4271C-29.4427 84.0027 -37.6781 52.0614 -34.3259 23.9685Z" fill="#1E1F20"/>
</g>
<rect x="11.9297" y="7.60547" width="355.031" height="59.3907" rx="5.44611" fill="white"/>
<path d="M40.9746 45.6382V30.3198H46.582C50.2559 30.3198 52.0605 32.2319 52.0605 35.3042C52.0605 38.7417 49.9121 40.8257 46.4961 40.8257H44.0039V45.6382H40.9746ZM44.0039 38.312H46.2813C47.9355 38.312 48.9453 37.3452 48.9453 35.4761C48.9453 33.7358 48 32.9624 46.3457 32.9624H44.0039V38.312ZM61.2433 45.6382C60.8995 45.0796 60.5773 44.4565 60.3409 43.5972C59.6964 45.1226 58.2784 45.8745 56.753 45.8745C55.0558 45.8745 53.7023 44.9722 53.7023 43.0386C53.7023 39.4722 57.8058 39.7729 60.0402 38.7202C59.9112 37.1304 58.7726 36.7222 57.3546 36.7222C56.3663 36.7222 55.2921 36.9155 54.2179 37.1519V34.5522C55.464 34.2515 56.6886 34.0796 57.7843 34.0796C60.7062 34.0796 62.8761 35.3042 62.8761 38.8491V41.771C62.8761 42.8237 62.8976 43.9624 63.1124 45.6382H61.2433ZM56.6026 42.5659C56.6026 43.2964 57.0538 43.6616 57.7413 43.6616C58.7726 43.6616 60.0402 42.6948 60.0402 40.9546V40.4819C58.3644 41.2769 56.6026 41.019 56.6026 42.5659ZM69.5441 42.2007C69.2648 42.2007 68.9855 42.1792 68.7062 42.1577C68.384 42.3296 68.2551 42.6089 68.2551 42.9097C68.2551 43.6831 69.3937 43.7046 70.8762 43.8335C73.0461 44.0054 75.4309 44.3921 75.4309 46.9058C75.4309 49.312 72.8742 50.4722 69.4152 50.4722C66.2785 50.4722 64.1086 49.6128 64.1086 47.5503C64.1086 45.939 65.7414 45.23 67.0734 45.3374C66.3215 45.0151 65.8273 44.4565 65.8273 43.7261C65.8273 42.7378 66.6652 42.1362 67.6535 41.9214C65.9348 41.3413 65.0324 39.9233 65.0324 38.1187C65.0324 35.7983 66.7297 34.0796 69.673 34.0796C70.382 34.0796 71.0051 34.187 71.5422 34.3374C71.6066 34.3589 71.7141 34.3804 71.8 34.3804C72.5519 34.3804 72.7238 33.7144 72.7238 32.9409C72.7238 32.5757 72.6594 32.1675 72.5949 31.8237H75.2805C75.3234 32.103 75.3664 32.3608 75.3664 32.6401C75.3664 34.3589 74.1203 35.1968 73.0031 35.1968C72.8742 35.1968 72.7453 35.1753 72.6379 35.1538C73.6477 35.8843 74.1848 36.9155 74.1848 38.2476C74.1848 40.3745 72.4875 42.2007 69.5441 42.2007ZM69.5871 40.1382C70.7473 40.1382 71.3918 39.4722 71.3918 38.1401C71.3918 36.7651 70.7902 36.1206 69.6086 36.1206C68.4484 36.1206 67.8254 36.7222 67.8254 38.0972C67.8254 39.4507 68.4269 40.1382 69.5871 40.1382ZM66.8586 46.8628C66.8586 47.98 68.2336 48.2593 69.6516 48.2593C71.1555 48.2593 72.423 47.98 72.423 47.1206C72.423 45.9819 70.2101 46.1323 68.3625 45.853C67.5246 45.7886 66.8586 46.1968 66.8586 46.8628ZM83.5249 45.6382C83.1812 45.0796 82.8589 44.4565 82.6226 43.5972C81.9781 45.1226 80.5601 45.8745 79.0347 45.8745C77.3374 45.8745 75.9839 44.9722 75.9839 43.0386C75.9839 39.4722 80.0874 39.7729 82.3218 38.7202C82.1929 37.1304 81.0542 36.7222 79.6363 36.7222C78.648 36.7222 77.5738 36.9155 76.4995 37.1519V34.5522C77.7456 34.2515 78.9702 34.0796 80.0659 34.0796C82.9878 34.0796 85.1577 35.3042 85.1577 38.8491V41.771C85.1577 42.8237 85.1792 43.9624 85.3941 45.6382H83.5249ZM78.8843 42.5659C78.8843 43.2964 79.3355 43.6616 80.023 43.6616C81.0542 43.6616 82.3218 42.6948 82.3218 40.9546V40.4819C80.646 41.2769 78.8843 41.019 78.8843 42.5659ZM94.984 37.0874C92.9215 37.0015 91.7184 37.4312 91.2242 38.2476V45.6382H88.2164V38.5913C88.2164 37.4956 88.1949 36.0562 88.066 34.3159H89.9781C90.3863 34.853 90.773 35.8413 90.9664 36.7651C91.5035 35.0249 92.7066 34.0796 94.984 34.0796V37.0874ZM106.458 45.8745C103.107 45.8745 100.743 44.0269 100.743 39.9663C100.743 36.0991 103.214 34.0796 106.587 34.0796C107.339 34.0796 108.155 34.187 108.972 34.3804V36.894C108.241 36.7437 107.532 36.6577 106.931 36.6577C104.997 36.6577 103.73 37.4741 103.73 39.9878C103.73 42.5015 104.976 43.2964 106.888 43.2964C107.532 43.2964 108.241 43.2104 108.972 43.0601V45.5737C108.091 45.7456 107.253 45.8745 106.458 45.8745ZM115.976 45.8745C112.367 45.8745 110.562 43.3179 110.562 40.0952C110.562 36.7437 112.496 34.0796 116.191 34.0796C119.779 34.0796 121.605 36.6362 121.605 39.8589C121.605 43.2104 119.672 45.8745 115.976 45.8745ZM116.084 43.4683C117.803 43.4683 118.619 42.1147 118.619 39.9663C118.619 37.7749 117.824 36.4858 116.084 36.4858C114.344 36.4858 113.527 37.8394 113.527 39.9878C113.527 42.1792 114.344 43.4683 116.084 43.4683ZM131.653 38.8921C131.653 37.4312 130.901 36.7866 129.676 36.7866C128.537 36.7866 127.742 37.3237 127.248 38.0542V45.6382H124.241V38.5913C124.241 37.4956 124.219 36.0562 124.09 34.3159H126.002C126.389 34.8315 126.733 35.7124 126.948 36.5503C127.42 35.2827 128.559 34.0796 130.621 34.0796C132.942 34.0796 134.66 35.3687 134.66 38.4194V45.6382H131.653V38.8921Z" fill="#1D1D1D"/>
<g clip-path="url(#clip1_10764_21052)">
<path d="M319.014 26.6992C314.873 26.6992 311.503 30.0686 311.503 34.21V38.5007C311.503 38.549 311.442 38.6323 311.398 38.6455C310.99 38.7815 310.661 38.8999 310.358 39.014C309.999 39.1544 309.727 39.5536 309.727 39.9441V49.7977C309.727 50.1837 309.999 50.583 310.354 50.7277C313.122 51.8245 316.035 52.3817 319.014 52.3817C321.993 52.3817 324.906 51.8245 327.674 50.7277C328.034 50.5873 328.302 50.1881 328.302 49.7977V39.9441C328.302 39.5536 328.03 39.1544 327.67 39.014C327.367 38.8955 327.038 38.7815 326.63 38.6455C326.582 38.6279 326.525 38.549 326.525 38.5007V34.21C326.525 30.0686 323.156 26.6992 319.014 26.6992ZM316.97 42.9449C316.97 41.813 317.887 40.9005 319.014 40.9005C320.142 40.9005 321.059 41.8174 321.059 42.9449C321.059 43.6951 320.637 44.3225 320.036 44.6778V48.0603C320.036 48.6263 319.58 49.0825 319.014 49.0825C318.448 49.0825 317.992 48.6263 317.992 48.0603V44.6778C317.391 44.3225 316.97 43.6951 316.97 42.9449ZM323.941 34.21V37.9128C322.327 37.5662 320.668 37.3907 319.014 37.3907C317.36 37.3907 315.706 37.5662 314.087 37.9128V34.2144C314.087 31.4988 316.299 29.2876 319.014 29.2876C321.73 29.2833 323.941 31.49 323.941 34.21Z" fill="#1D1D1D"/>
</g>
<path d="M168.819 41.8682C168.772 42.0989 168.724 42.332 168.677 42.5627C167.49 42.7605 166.298 42.8924 165.105 42.9654C166.371 42.624 167.611 42.2637 168.819 41.8682Z" fill="#ED1C27"/>
<path d="M195.356 19.1977C191.96 28.5396 184.968 36.9732 175.531 40.6794C175.531 40.6794 175.91 38.8275 175.913 38.8275C183.573 34.4648 188.8 26.6524 190.913 18.2706C191.659 17.8658 193.696 16.7104 193.696 16.7104C193.696 16.7104 194.771 18.2965 195.356 19.1977Z" fill="#ED1C27"/>
<path d="M179.283 22.4061C179.352 22.0673 179.459 21.8555 179.845 21.8273C181.498 21.6979 183.149 21.432 184.797 21.4461C186.834 21.4602 188.182 22.8885 188.447 25.0534C189.496 22.8768 190.321 20.6013 190.911 18.2694C190.882 18.2482 190.854 18.2294 190.825 18.2105C189.198 17.1069 187.339 16.8104 185.43 16.7304C181.529 16.561 177.751 17.314 174.018 18.3376C173.819 18.3941 173.589 18.6953 173.542 18.9188C173.213 20.5142 167.379 48.9117 167.379 48.9117H171.744C172.973 48.9117 174.027 47.9705 174.276 46.761C174.279 46.7657 178.999 23.8016 179.283 22.4061Z" fill="#1D1D1D"/>
<path d="M194.075 22.3149C190.598 29.8426 184.759 36.4572 177.18 39.9728C189.456 43.4578 197.535 31.4545 194.075 22.3149Z" fill="#1D1D1D"/>
<path d="M165.86 28.3054C156.945 19.7471 141.746 29.5149 144.183 41.1534C145.699 48.394 153.586 50.0012 159.969 48.2928C164.02 47.2104 163.536 43.3065 163.536 43.3065C158.456 44.4737 148.787 43.4242 149.581 39.5674C153.489 40.6569 159.446 40.9158 163.626 38.7815C169.081 35.9954 168.15 30.8609 165.86 28.3054ZM162.122 33.1834C160.761 35.9766 152.977 35.953 150.175 35.1365C151.933 31.1738 156.554 28.8066 160.791 30.522C162.07 31.0421 162.639 32.1151 162.122 33.1834Z" fill="#1D1D1D"/>
<path d="M221.994 26.8487C218.218 25.618 213.69 25.0532 210.374 25.0532C201.598 25.0532 196.075 32.9009 196.333 39.7861C196.432 42.4287 197.325 48.4268 205.362 49.1163C207.593 49.3069 209.722 49.0221 211.586 47.6526C211.601 47.6409 211.731 47.5256 211.7 47.6903C211.634 48.0738 211.485 48.9163 211.485 48.9163C211.485 48.9163 215.675 48.9163 217.662 48.9163C218.036 48.9163 218.088 48.6598 218.143 48.3986C219.571 41.4568 221.009 34.5293 222.42 27.5828C222.51 27.1451 222.423 26.9851 221.994 26.8487ZM215.184 30.9854C214.431 34.5645 213.702 38.1484 212.941 41.7298C212.875 42.0381 212.714 42.3181 212.477 42.5275C210.672 44.1229 208.569 44.6477 206.219 44.1112C201.714 43.0829 202.453 36.7365 204.031 33.6751C205.468 30.889 208.718 29.3147 212.027 29.7406C215.338 30.1642 215.27 30.5689 215.184 30.9854Z" fill="#1D1D1D"/>
<path d="M299.257 33.428C298.795 27.9499 294.441 25.0532 289.216 25.0532C278.259 25.0532 274.64 34.148 274.974 40.4685C275.294 46.5372 280.696 49.3633 286.139 48.8574C291.196 48.5586 294.995 46.2643 297.345 41.7698C298.705 39.1649 299.586 36.4188 299.257 33.428ZM284.145 43.7206C279.323 42.7346 280.957 36.3976 281.964 34.5293C284.394 30.016 287.705 29.8089 289.588 30.1054C292.075 30.4936 293.487 32.2585 293.347 35.2399C293.136 39.7532 289.756 44.8665 284.145 43.7206Z" fill="#1D1D1D"/>
<path d="M221.926 59.4779L222.743 55.4563C222.866 54.9857 223.309 54.6506 223.795 54.6363C226.244 54.5674 227.082 54.1396 228.307 52.8038C229.242 51.6107 229.95 50.6528 230.737 49.55C230.841 49.405 230.85 49.1459 230.813 48.9558C229.486 42.1985 226.139 25.0547 226.139 25.0547C226.139 25.0547 232.241 25 232.625 27.4577C233.361 32.1637 235.104 41.678 235.187 42.0536C235.403 41.6804 241.109 31.85 243.778 27.1368C245.088 24.8242 250.078 25.0547 251.727 25.0547C246.807 33.3046 237.253 49.3028 235.763 51.7889C231.893 58.2396 228.487 59.5278 224.92 59.4826C223.949 59.4707 221.926 59.4779 221.926 59.4779Z" fill="#1D1D1D"/>
<path d="M270.526 42.3368C270.18 44.0146 269.553 47.0666 269.531 47.1748C269.496 47.3537 269.42 47.5513 269.181 47.6407C265.886 48.8644 262.369 49.4409 259.169 48.3137C248.814 44.6711 251.594 28.1404 262.409 25.5096C267.719 24.2178 273.015 26.0885 273.274 26.1685C273.574 26.2626 273.762 26.5638 273.7 26.8697C273.513 27.7898 272.918 30.703 272.892 30.8089C269.896 29.8464 266.748 29.1499 263.688 30.2182C257.606 32.3454 256.284 42.7133 262.333 43.9275C265.232 44.5111 267.885 43.4898 270.526 42.3368Z" fill="#1D1D1D"/>
<path d="M255.898 57.9564C256.736 58.128 258.804 58.0746 258.851 56.763C258.851 56.2368 258.151 55.745 257.486 55.6039C256.665 55.4323 256.142 55.4285 255.312 55.6039C254.801 55.7945 254.644 55.3065 255.108 55.1425C255.989 54.8299 259.425 54.765 259.586 56.763C259.444 58.7381 256.445 58.597 255.768 58.4636C255.501 58.414 255.297 58.292 255.297 57.9641V56.3207C255.297 55.9318 255.894 55.9356 255.894 56.3207V57.9564H255.898Z" fill="#ED1C27"/>
<path d="M262.354 55.6427C261.685 55.6427 260.561 57.6216 260.227 58.3308C260.03 58.754 259.401 58.4528 259.601 58.0258C259.955 57.2632 261.296 54.9602 262.346 54.9831C263.395 54.964 264.736 57.2632 265.09 58.0258C265.287 58.4528 264.661 58.754 264.465 58.3308C264.135 57.6216 263.018 55.6427 262.354 55.6427Z" fill="#ED1C27"/>
<path d="M267.032 57.8718C267.7 57.8718 268.825 55.893 269.155 55.1838C269.352 54.7605 269.981 55.0617 269.78 55.485C269.426 56.2475 268.086 58.5505 267.036 58.5315C265.986 58.5505 264.646 56.2514 264.292 55.485C264.095 55.0579 264.72 54.7567 264.921 55.1838C265.251 55.893 266.364 57.8718 267.032 57.8718Z" fill="#ED1C27"/>
<path d="M270.914 55.3227V58.2052C270.914 58.6361 270.242 58.6208 270.242 58.19V55.315C270.242 54.8689 270.914 54.8651 270.914 55.3227Z" fill="#ED1C27"/>
<path d="M274.13 57.8718C274.798 57.8718 275.923 55.893 276.253 55.1838C276.449 54.7605 277.078 55.0617 276.878 55.485C276.52 56.2475 275.179 58.5505 274.13 58.5315C273.08 58.5505 271.739 56.2514 271.385 55.485C271.189 55.0579 271.814 54.7567 272.011 55.1838C272.341 55.893 273.453 57.8718 274.122 57.8718" fill="#ED1C27"/>
<path d="M279.29 57.0559C279.487 57.4601 280.049 57.788 280.592 57.9024C281.41 58.0778 281.932 58.0778 282.762 57.9024C283.257 57.746 283.43 58.2112 282.963 58.3637C282.043 58.6649 278.669 58.7717 278.473 56.7661C278.583 54.8559 281.276 54.9054 282.306 55.0389C282.809 55.1037 282.707 55.6184 282.18 55.5117C281.492 55.424 279.621 55.3172 279.255 56.5183H281.174C281.472 56.5183 281.472 57.0559 281.174 57.0559H279.29Z" fill="#ED1C27"/>
<path d="M289.988 57.9594C290.825 58.131 292.893 58.0776 292.941 56.7659C292.941 56.2398 292.241 55.7479 291.572 55.6068C290.755 55.4352 290.232 55.4314 289.402 55.6068C288.891 55.7975 288.734 55.3094 289.198 55.1455C290.082 54.8328 293.515 54.768 293.676 56.7659C293.534 58.741 290.534 58.5999 289.862 58.4665C289.595 58.4169 289.39 58.2949 289.39 57.967V56.3236C289.39 55.9347 289.988 55.9385 289.988 56.3236V57.9594Z" fill="#ED1C27"/>
<path d="M296.446 55.6427C295.778 55.6427 294.649 57.6216 294.319 58.3308C294.123 58.754 293.497 58.4528 293.694 58.0258C294.052 57.2632 295.392 54.9602 296.438 54.9831C297.488 54.964 298.829 57.2632 299.183 58.0258C299.379 58.4528 298.754 58.754 298.557 58.3308C298.227 57.6216 297.115 55.6427 296.446 55.6427Z" fill="#ED1C27"/>
<path d="M278.008 55.3227V58.2052C278.008 58.6361 277.336 58.6208 277.336 58.19V55.315C277.336 54.8689 278.008 54.8651 278.008 55.3227Z" fill="#ED1C27"/>
<path d="M286.085 57.3452C285.669 56.6093 285.212 55.6332 284.898 55.6103C284.123 55.6103 284.473 57.0897 284.462 58.245C284.458 58.653 283.789 58.653 283.789 58.1992C283.789 56.7275 283.463 54.9697 284.914 54.9697C285.338 54.9697 285.739 55.5874 286.101 56.167C286.518 56.9067 287.013 57.8828 287.324 57.9056C288.098 57.9056 287.729 56.4568 287.744 55.3014C287.748 54.8935 288.417 54.8935 288.417 55.3472C288.417 56.8228 288.763 58.55 287.312 58.55C286.883 58.55 286.447 57.9323 286.085 57.349" fill="#ED1C27"/>
<path fill-rule="evenodd" clip-rule="evenodd" d="M246.577 55.6855C246.591 55.7947 246.577 56.2618 246.137 56.9028C245.677 57.6087 246.405 58.7885 247.874 58.4884C248.198 58.6009 248.546 58.618 248.771 58.6146C248.996 58.6146 249.347 58.6009 249.671 58.4918C251.141 58.7919 251.865 57.6087 251.404 56.9028C250.961 56.2652 250.951 55.7947 250.965 55.6855H246.584H246.577Z" fill="#E5252B"/>
<path fill-rule="evenodd" clip-rule="evenodd" d="M248.765 58.6061C247.333 58.5687 247.073 57.9288 247.466 57.796C247.698 57.7177 248 57.5884 248 57.5884C247.845 56.8668 248.098 55.9444 248.768 55.9478C249.439 55.9478 249.681 56.8974 249.53 57.6054C249.53 57.6054 249.835 57.7109 250.06 57.7994C250.435 57.939 250.197 58.5721 248.765 58.6095" fill="#0682C4"/>
<path fill-rule="evenodd" clip-rule="evenodd" d="M248.229 58.1028C247.847 57.0731 248.183 56.1079 248.769 56.1079C249.326 56.1113 249.704 57.0459 249.312 58.0994C249.312 58.0994 249.126 58.0586 248.751 58.0586C248.471 58.0586 248.232 58.1028 248.232 58.1028" fill="#FFE11B"/>
<path fill-rule="evenodd" clip-rule="evenodd" d="M248.761 58.6215C249.339 58.6215 249.791 58.5025 249.791 58.3359C249.791 58.1693 249.339 58.0469 248.761 58.0469C248.183 58.0469 247.73 58.1659 247.73 58.3359C247.73 58.5059 248.183 58.6215 248.761 58.6215Z" fill="#F49824"/>
<path fill-rule="evenodd" clip-rule="evenodd" d="M246.856 56.1973H247.551C247.66 56.1973 247.748 56.2824 247.748 56.388V56.8409C247.748 56.9499 247.66 57.035 247.551 57.035H246.856C246.748 57.035 246.656 56.9499 246.656 56.8409V56.388C246.656 56.2824 246.744 56.1973 246.856 56.1973Z" fill="#0682C4"/>
<path d="M246.936 56.3101H247.481C247.565 56.3101 247.631 56.3745 247.631 56.4526V56.7817C247.631 56.8631 247.565 56.9276 247.481 56.9276H246.936C246.852 56.9276 246.785 56.8631 246.785 56.7817V56.4526C246.785 56.3745 246.852 56.3101 246.936 56.3101Z" fill="#231F20"/>
<path fill-rule="evenodd" clip-rule="evenodd" d="M247.631 56.6953C247.385 56.6718 247.302 56.3926 247.281 56.3052H247.482C247.565 56.3052 247.631 56.3691 247.631 56.4464V56.692V56.6953Z" fill="#FFE11B"/>
<path fill-rule="evenodd" clip-rule="evenodd" d="M247.139 56.3101C247.125 56.3908 247.045 56.6867 246.785 56.7002V56.4513C246.785 56.374 246.851 56.3101 246.934 56.3101H247.139Z" fill="#FFE11B"/>
<path fill-rule="evenodd" clip-rule="evenodd" d="M249.986 56.1973H250.677C250.786 56.1973 250.877 56.2824 250.877 56.388V56.8409C250.877 56.9499 250.789 57.035 250.677 57.035H249.986C249.877 57.035 249.789 56.9499 249.789 56.8409V56.388C249.789 56.2824 249.877 56.1973 249.986 56.1973Z" fill="#0682C4"/>
<path d="M250.065 56.3101H250.614C250.698 56.3101 250.764 56.3745 250.764 56.4526V56.7817C250.764 56.8631 250.698 56.9276 250.614 56.9276H250.065C249.984 56.9276 249.918 56.8631 249.918 56.7817V56.4526C249.918 56.3745 249.984 56.3101 250.065 56.3101Z" fill="#231F20"/>
<path fill-rule="evenodd" clip-rule="evenodd" d="M250.76 56.6953C250.514 56.6718 250.431 56.3926 250.41 56.3052H250.615C250.698 56.3052 250.764 56.3691 250.764 56.4464V56.692L250.76 56.6953Z" fill="#FFE11B"/>
<path fill-rule="evenodd" clip-rule="evenodd" d="M250.268 56.3101C250.25 56.3908 250.174 56.6867 249.914 56.7002V56.4513C249.914 56.374 249.98 56.3101 250.06 56.3101H250.268Z" fill="#FFE11B"/>
<path fill-rule="evenodd" clip-rule="evenodd" d="M250.208 53.9312C250.135 53.6906 250.121 53.5719 250.348 53.5719H250.847C251.151 53.5651 251.025 53.7956 250.998 54.0193C250.959 54.3142 250.959 54.4057 250.959 54.4057C250.959 54.4057 250.208 53.938 250.208 53.9346" fill="#E5252B"/>
<path fill-rule="evenodd" clip-rule="evenodd" d="M248.762 55.6615C248.013 55.6615 246.986 55.7263 246.325 55.774C245.819 55.8115 245.425 55.4365 245.763 55.0818C246.483 54.3249 248.238 53.3735 248.769 53.3735C249.335 53.3735 251.054 54.3249 251.775 55.0818C252.112 55.4365 251.775 55.774 251.262 55.774C250.695 55.774 249.511 55.6615 248.762 55.6615Z" fill="#F49824"/>
<path d="M249.172 57.3566C249.172 57.3032 249.213 57.2598 249.268 57.2598C249.323 57.2598 249.361 57.3032 249.361 57.3566C249.361 57.4101 249.32 57.4502 249.268 57.4502C249.217 57.4502 249.172 57.4067 249.172 57.3566Z" fill="#231F20"/>
<path fill-rule="evenodd" clip-rule="evenodd" d="M248.765 58.0308C248.466 58.0308 248.227 58.0751 248.227 58.0751C247.872 57.0692 248.195 56.1247 248.765 56.1247C249.334 56.1247 249.661 57.0726 249.303 58.0751C249.303 58.0751 249.074 58.0308 248.765 58.0308ZM249.292 58.1092C249.588 58.1535 249.785 58.2388 249.785 58.3342C249.785 58.4775 249.331 58.5968 248.768 58.5968C248.206 58.5968 247.752 58.4775 247.752 58.3342C247.752 58.2388 247.946 58.1535 248.241 58.1092C248.241 58.1092 248.561 58.0717 248.768 58.0717C248.976 58.0717 249.296 58.1092 249.296 58.1092M249.338 58.0785C249.711 57.0351 249.349 56.077 248.768 56.0804C248.188 56.0804 247.826 57.0385 248.199 58.0785C247.911 58.1331 247.721 58.2251 247.721 58.3342C247.721 58.3683 247.742 58.399 247.777 58.4297C247.292 58.2251 247.246 57.8876 247.513 57.7955C247.742 57.7171 248.023 57.6114 248.023 57.6114C247.875 56.909 248.104 55.9678 248.772 55.9678C249.44 55.9678 249.669 56.909 249.517 57.6114C249.517 57.6114 249.795 57.7205 250.027 57.7955C250.287 57.8807 250.249 58.2183 249.767 58.4263C249.802 58.3956 249.82 58.3649 249.82 58.3308C249.82 58.2251 249.63 58.1297 249.342 58.0751M250.238 53.9254C250.182 53.7037 250.178 53.6117 250.375 53.6117H250.808C251.092 53.6083 250.976 53.8197 250.952 54.0345C250.938 54.1641 250.927 54.2698 250.924 54.3482C250.695 54.1913 250.463 54.0515 250.242 53.9254M249.739 58.4809C251.117 58.7059 251.789 57.5875 251.349 56.9089C251.008 56.4179 250.927 56.0054 250.917 55.7939C250.013 55.7496 249.391 55.7053 248.768 55.6985C248.146 55.7053 247.524 55.7496 246.62 55.7939C246.606 56.0054 246.525 56.4179 246.184 56.9089C245.745 57.5875 246.416 58.7059 247.795 58.4809C247.211 58.266 247.137 57.9012 247.45 57.7819C247.678 57.6966 247.984 57.5875 247.984 57.5875C247.833 56.8646 248.097 55.9099 248.765 55.9099C249.436 55.9099 249.7 56.8612 249.545 57.5875C249.545 57.5875 249.851 57.6966 250.08 57.7819C250.393 57.8978 250.319 58.266 249.735 58.4809M248.768 55.6098C247.991 55.62 247.257 55.6746 246.392 55.7292C245.854 55.7633 245.551 55.4155 245.889 55.054C246.388 54.5255 248.093 53.4344 248.768 53.4344C249.443 53.4344 251.145 54.5255 251.648 55.054C251.986 55.4121 251.683 55.7633 251.149 55.7292C250.284 55.6746 249.545 55.6234 248.772 55.6098M250.14 53.8674C250.133 53.8469 250.126 53.8231 250.122 53.8026C250.083 53.673 250.122 53.5298 250.351 53.5298H250.853C251.149 53.5298 251.117 53.7276 251.064 53.9186C251.029 54.0549 251.001 54.2288 250.987 54.3925C250.987 54.3925 251.398 54.6858 251.627 54.8733C252.344 55.4632 251.877 55.8451 251.191 55.8144C251.121 55.811 251.054 55.8076 250.987 55.8042C250.991 55.9985 251.05 56.36 251.367 56.7726C252.161 57.6966 251.107 58.8559 249.619 58.5286C249.373 58.607 248.983 58.6445 248.768 58.6445C248.554 58.6445 248.164 58.607 247.914 58.5286C246.427 58.8559 245.372 57.6966 246.167 56.7726C246.483 56.3634 246.543 56.0019 246.546 55.8042L246.346 55.8144C245.66 55.8485 245.193 55.4632 245.91 54.8733C246.979 54.0004 248.269 53.3525 248.768 53.3491C249.043 53.3491 249.556 53.5503 250.14 53.8708" fill="#231F20"/>
<path d="M247.547 57.0538H246.853C246.731 57.0538 246.633 56.9587 246.633 56.8398V56.3879C246.633 56.2724 246.731 56.1772 246.853 56.1772H247.547C247.666 56.1772 247.764 56.2724 247.764 56.3879V56.8398C247.764 56.9587 247.666 57.0538 247.547 57.0538ZM246.857 56.218C246.759 56.218 246.678 56.2962 246.678 56.3879V56.8398C246.678 56.9349 246.759 57.013 246.857 57.013H247.55C247.648 57.013 247.725 56.9349 247.725 56.8398V56.3879C247.725 56.2928 247.645 56.218 247.55 56.218H246.857Z" fill="#231F20"/>
<path d="M250.68 57.0538H249.991C249.871 57.0538 249.773 56.9587 249.773 56.8398V56.3879C249.773 56.2724 249.871 56.1772 249.991 56.1772H250.68C250.803 56.1772 250.901 56.2724 250.901 56.3879V56.8398C250.901 56.9587 250.803 57.0538 250.68 57.0538ZM249.987 56.218C249.889 56.218 249.812 56.2962 249.812 56.3879V56.8398C249.812 56.9349 249.892 57.013 249.987 57.013H250.677C250.775 57.013 250.855 56.9349 250.855 56.8398V56.3879C250.855 56.2928 250.775 56.218 250.677 56.218H249.987Z" fill="#231F20"/>
</g>
<defs>
<filter id="filter0_f_10764_21052" x="198.355" y="-63.632" width="238.236" height="184.434" filterUnits="userSpaceOnUse" color-interpolation-filters="sRGB">
<feFlood flood-opacity="0" result="BackgroundImageFix"/>
<feBlend mode="normal" in="SourceGraphic" in2="BackgroundImageFix" result="shape"/>
<feGaussianBlur stdDeviation="25.1898" result="effect1_foregroundBlur_10764_21052"/>
</filter>
<filter id="filter1_f_10764_21052" x="-85.4108" y="-97.504" width="235.556" height="232.318" filterUnits="userSpaceOnUse" color-interpolation-filters="sRGB">
<feFlood flood-opacity="0" result="BackgroundImageFix"/>
<feBlend mode="normal" in="SourceGraphic" in2="BackgroundImageFix" result="shape"/>
<feGaussianBlur stdDeviation="25.1898" result="effect1_foregroundBlur_10764_21052"/>
</filter>
<clipPath id="clip0_10764_21052">
<rect x="8.70312" y="5.44629" width="361.622" height="63.6886" rx="5.44611" fill="white"/>
</clipPath>
<clipPath id="clip1_10764_21052">
<rect width="18.5753" height="25.6825" fill="white" transform="translate(309.727 26.7002)"/>
</clipPath>
</defs>
</svg>
