<svg width="362" height="64" viewBox="0 0 362 64" fill="none" xmlns="http://www.w3.org/2000/svg">
<g clip-path="url(#clip0_10761_22862)">
<rect width="375.697" height="124.511" transform="translate(-14.082 -5.40918)" fill="#F8991D"/>
<g filter="url(#filter0_f_10761_22862)">
<path d="M-16.4858 23.2586C1.70126 7.98145 82.3541 33.8982 102.123 53.0239C121.893 72.1495 89.9726 108.774 71.7856 124.051C53.5986 139.328 -7.02268 102.443 -26.7921 83.3169C-46.5616 64.1913 -34.6728 38.5357 -16.4858 23.2586Z" fill="url(#paint0_linear_10761_22862)" fill-opacity="0.87"/>
</g>
<g filter="url(#filter1_f_10761_22862)">
<path d="M267.618 -40.0857C293.123 -51.9162 370.478 -8.73681 384.563 14.89C398.648 38.5168 350.138 69.2991 324.633 81.1296C299.127 92.9601 247.629 42.7317 233.544 19.1049C219.458 -4.5219 242.112 -28.2553 267.618 -40.0857Z" fill="url(#paint1_linear_10761_22862)" fill-opacity="0.87"/>
</g>
<rect x="3.22266" y="2.16797" width="356.094" height="59.5685" rx="5.44611" fill="white"/>
<path d="M161.799 36.5361C161.752 36.7676 161.704 37.0014 161.656 37.2328C160.466 37.4312 159.27 37.5634 158.074 37.6366C159.344 37.2942 160.587 36.9329 161.799 36.5361Z" fill="#ED1C27"/>
<path d="M188.415 13.7979C185.009 23.1678 177.996 31.6266 168.531 35.3439C168.531 35.3439 168.911 33.4865 168.914 33.4865C176.597 29.1107 181.84 21.2749 183.959 12.868C184.707 12.4621 186.75 11.3032 186.75 11.3032C186.75 11.3032 187.829 12.894 188.415 13.7979Z" fill="#ED1C27"/>
<path d="M172.295 17.016C172.364 16.6761 172.471 16.4637 172.859 16.4354C174.517 16.3056 176.173 16.0389 177.826 16.053C179.869 16.0672 181.221 17.4998 181.487 19.6712C182.539 17.488 183.366 15.2057 183.958 12.8668C183.929 12.8456 183.901 12.8267 183.872 12.8078C182.24 11.7009 180.375 11.4035 178.46 11.3233C174.548 11.1533 170.758 11.9086 167.014 12.9353C166.815 12.9919 166.584 13.294 166.537 13.5182C166.207 15.1184 160.355 43.6009 160.355 43.6009H164.734C165.967 43.6009 167.024 42.6569 167.273 41.4437C167.276 41.4485 172.01 18.4156 172.295 17.016Z" fill="#1D1D1D"/>
<path d="M187.129 16.9243C183.642 24.4745 177.786 31.1089 170.184 34.635C182.497 38.1304 190.6 26.0912 187.129 16.9243Z" fill="#1D1D1D"/>
<path d="M158.832 22.9328C149.89 14.3489 134.645 24.1459 137.09 35.8193C138.61 43.0815 146.521 44.6935 152.924 42.9801C156.986 41.8944 156.501 37.9789 156.501 37.9789C151.406 39.1495 141.708 38.0969 142.504 34.2286C146.424 35.3213 152.399 35.5809 156.592 33.4403C162.063 30.6458 161.129 25.4959 158.832 22.9328ZM155.083 27.8254C153.717 30.6269 145.911 30.6033 143.1 29.7844C144.863 25.8098 149.498 23.4355 153.748 25.1561C155.031 25.6777 155.601 26.7539 155.083 27.8254Z" fill="#1D1D1D"/>
<path d="M215.133 21.4717C211.346 20.2373 206.804 19.6709 203.478 19.6709C194.676 19.6709 189.136 27.5421 189.395 34.4479C189.495 37.0984 190.391 43.1145 198.451 43.806C200.689 43.9972 202.825 43.7116 204.695 42.338C204.709 42.3262 204.84 42.2105 204.809 42.3757C204.742 42.7604 204.592 43.6054 204.592 43.6054C204.592 43.6054 208.795 43.6054 210.788 43.6054C211.163 43.6054 211.216 43.3481 211.27 43.0861C212.703 36.1236 214.145 29.1753 215.561 22.2081C215.651 21.7691 215.563 21.6086 215.133 21.4717ZM208.303 25.6209C207.548 29.2107 206.816 32.8052 206.053 36.3974C205.987 36.7066 205.825 36.9875 205.588 37.1975C203.778 38.7977 201.668 39.324 199.311 38.7859C194.793 37.7545 195.534 31.3891 197.116 28.3186C198.558 25.5241 201.818 23.9452 205.136 24.3724C208.458 24.7972 208.389 25.2031 208.303 25.6209Z" fill="#1D1D1D"/>
<path d="M292.626 28.0707C292.163 22.5763 287.796 19.6709 282.556 19.6709C271.566 19.6709 267.936 28.793 268.271 35.1324C268.592 41.2192 274.011 44.0538 279.47 43.5464C284.542 43.2466 288.352 40.9455 290.709 36.4375C292.073 33.8248 292.956 31.0705 292.626 28.0707ZM277.47 38.3941C272.633 37.4052 274.272 31.0493 275.282 29.1753C277.719 24.6485 281.04 24.4408 282.929 24.7382C285.423 25.1276 286.839 26.8977 286.699 29.8881C286.487 34.4149 283.097 39.5435 277.47 38.3941Z" fill="#1D1D1D"/>
<path d="M215.066 54.1986L215.886 50.165C216.01 49.693 216.454 49.3569 216.941 49.3426C219.397 49.2735 220.238 48.8444 221.466 47.5046C222.405 46.3079 223.115 45.3472 223.904 44.241C224.008 44.0956 224.018 43.8358 223.98 43.645C222.649 36.8676 219.293 19.6724 219.293 19.6724C219.293 19.6724 225.412 19.6176 225.797 22.0825C226.536 26.8027 228.285 36.3455 228.368 36.7222C228.584 36.3479 234.307 26.488 236.984 21.7607C238.298 19.4412 243.303 19.6724 244.957 19.6724C240.023 27.947 230.439 43.9931 228.945 46.4867C225.063 52.9566 221.647 54.2487 218.069 54.2034C217.095 54.1915 215.066 54.1986 215.066 54.1986Z" fill="#1D1D1D"/>
<path d="M263.814 37.0062C263.467 38.689 262.837 41.7502 262.816 41.8587C262.78 42.0381 262.704 42.2363 262.465 42.326C259.16 43.5533 255.632 44.1316 252.423 43.001C242.036 39.3475 244.825 22.7673 255.673 20.1287C260.999 18.8329 266.311 20.7093 266.57 20.7895C266.871 20.8839 267.059 21.186 266.997 21.4928C266.81 22.4157 266.213 25.3375 266.187 25.4438C263.182 24.4784 260.025 23.7798 256.955 24.8513C250.855 26.9849 249.529 37.3838 255.597 38.6017C258.504 39.187 261.165 38.1627 263.814 37.0062Z" fill="#1D1D1D"/>
<path d="M249.14 52.6724C249.979 52.8445 252.054 52.7909 252.101 51.4754C252.101 50.9476 251.399 50.4543 250.733 50.3128C249.909 50.1407 249.384 50.1369 248.552 50.3128C248.039 50.504 247.882 50.0145 248.347 49.85C249.23 49.5365 252.677 49.4714 252.838 51.4754C252.696 53.4564 249.688 53.3149 249.009 53.181C248.741 53.1313 248.536 53.0089 248.536 52.68V51.0318C248.536 50.6417 249.136 50.6455 249.136 51.0318V52.6724H249.14Z" fill="#ED1C27"/>
<path d="M255.616 50.3517C254.945 50.3517 253.818 52.3365 253.482 53.0479C253.285 53.4724 252.654 53.1702 252.855 52.7419C253.21 51.977 254.555 49.6672 255.608 49.6901C256.661 49.671 258.006 51.977 258.36 52.7419C258.558 53.1702 257.931 53.4724 257.733 53.0479C257.402 52.3365 256.282 50.3517 255.616 50.3517Z" fill="#ED1C27"/>
<path d="M260.306 52.5875C260.976 52.5875 262.104 50.6027 262.435 49.8914C262.633 49.4669 263.263 49.769 263.062 50.1935C262.707 50.9584 261.363 53.2683 260.31 53.2492C259.257 53.2683 257.912 50.9622 257.557 50.1935C257.36 49.7652 257.987 49.4631 258.188 49.8914C258.52 50.6027 259.636 52.5875 260.306 52.5875Z" fill="#ED1C27"/>
<path d="M264.202 50.0307V52.9219C264.202 53.354 263.527 53.3388 263.527 52.9066V50.0231C263.527 49.5756 264.202 49.5718 264.202 50.0307Z" fill="#ED1C27"/>
<path d="M267.423 52.5875C268.094 52.5875 269.221 50.6027 269.553 49.8914C269.75 49.4669 270.381 49.769 270.18 50.1935C269.821 50.9584 268.476 53.2683 267.423 53.2492C266.37 53.2683 265.026 50.9622 264.671 50.1935C264.474 49.7652 265.101 49.4631 265.298 49.8914C265.629 50.6027 266.745 52.5875 267.415 52.5875" fill="#ED1C27"/>
<path d="M272.601 51.7691C272.799 52.1745 273.363 52.5034 273.907 52.6181C274.727 52.7941 275.251 52.7941 276.083 52.6181C276.58 52.4613 276.754 52.9279 276.285 53.0809C275.362 53.383 271.978 53.4901 271.781 51.4785C271.892 49.5625 274.593 49.6122 275.626 49.7461C276.131 49.8111 276.028 50.3274 275.5 50.2203C274.81 50.1323 272.933 50.0253 272.566 51.2299H274.49C274.79 51.2299 274.79 51.7691 274.49 51.7691H272.601Z" fill="#ED1C27"/>
<path d="M283.331 52.6753C284.171 52.8474 286.245 52.7939 286.292 51.4783C286.292 50.9506 285.59 50.4572 284.92 50.3157C284.1 50.1436 283.575 50.1398 282.743 50.3157C282.231 50.5069 282.073 50.0174 282.538 49.853C283.426 49.5394 286.868 49.4744 287.03 51.4783C286.888 53.4593 283.879 53.3178 283.205 53.1839C282.937 53.1342 282.732 53.0119 282.732 52.683V51.0347C282.732 50.6446 283.331 50.6484 283.331 51.0347V52.6753Z" fill="#ED1C27"/>
<path d="M289.81 50.3517C289.14 50.3517 288.008 52.3365 287.677 53.0479C287.479 53.4724 286.852 53.1702 287.05 52.7419C287.408 51.977 288.753 49.6672 289.802 49.6901C290.855 49.671 292.2 51.977 292.555 52.7419C292.752 53.1702 292.125 53.4724 291.928 53.0479C291.596 52.3365 290.48 50.3517 289.81 50.3517Z" fill="#ED1C27"/>
<path d="M271.315 50.0307V52.9219C271.315 53.354 270.641 53.3388 270.641 52.9066V50.0231C270.641 49.5756 271.315 49.5718 271.315 50.0307Z" fill="#ED1C27"/>
<path d="M279.416 52.0593C278.998 51.3212 278.541 50.3422 278.226 50.3192C277.449 50.3192 277.8 51.8031 277.788 52.9618C277.784 53.371 277.114 53.371 277.114 52.9159C277.114 51.4398 276.786 49.6768 278.241 49.6768C278.667 49.6768 279.069 50.2963 279.432 50.8776C279.85 51.6195 280.347 52.5985 280.659 52.6215C281.436 52.6215 281.065 51.1682 281.081 50.0095C281.085 49.6003 281.755 49.6003 281.755 50.0554C281.755 51.5354 282.102 53.2678 280.647 53.2678C280.217 53.2678 279.779 52.6482 279.416 52.0631" fill="#ED1C27"/>
<path fill-rule="evenodd" clip-rule="evenodd" d="M239.789 50.395C239.804 50.5045 239.789 50.973 239.349 51.616C238.887 52.3239 239.617 53.5072 241.091 53.2063C241.415 53.3191 241.764 53.3362 241.99 53.3328C242.216 53.3328 242.568 53.3191 242.893 53.2097C244.367 53.5107 245.093 52.3239 244.631 51.616C244.187 50.9764 244.176 50.5045 244.191 50.395H239.797H239.789Z" fill="#E5252B"/>
<path fill-rule="evenodd" clip-rule="evenodd" d="M241.984 53.3236C240.548 53.286 240.287 52.6442 240.682 52.511C240.914 52.4325 241.217 52.3028 241.217 52.3028C241.062 51.579 241.315 50.6538 241.988 50.6572C242.66 50.6572 242.903 51.6097 242.751 52.3199C242.751 52.3199 243.058 52.4257 243.283 52.5145C243.66 52.6544 243.42 53.2894 241.984 53.327" fill="#0682C4"/>
<path fill-rule="evenodd" clip-rule="evenodd" d="M241.448 52.8192C241.065 51.7864 241.403 50.8184 241.989 50.8184C242.548 50.8218 242.928 51.7591 242.534 52.8158C242.534 52.8158 242.348 52.7749 241.972 52.7749C241.691 52.7749 241.452 52.8192 241.452 52.8192" fill="#FFE11B"/>
<path fill-rule="evenodd" clip-rule="evenodd" d="M241.983 53.3395C242.562 53.3395 243.016 53.2202 243.016 53.0531C243.016 52.886 242.562 52.7632 241.983 52.7632C241.403 52.7632 240.949 52.8825 240.949 53.0531C240.949 53.2236 241.403 53.3395 241.983 53.3395Z" fill="#F49824"/>
<path fill-rule="evenodd" clip-rule="evenodd" d="M240.072 50.9077H240.769C240.878 50.9077 240.966 50.9931 240.966 51.099V51.5533C240.966 51.6626 240.878 51.748 240.769 51.748H240.072C239.963 51.748 239.871 51.6626 239.871 51.5533V51.099C239.871 50.9931 239.959 50.9077 240.072 50.9077Z" fill="#0682C4"/>
<path d="M240.151 51.021H240.698C240.782 51.021 240.849 51.0857 240.849 51.1639V51.494C240.849 51.5757 240.782 51.6404 240.698 51.6404H240.151C240.067 51.6404 240 51.5757 240 51.494V51.1639C240 51.0857 240.067 51.021 240.151 51.021Z" fill="#231F20"/>
<path fill-rule="evenodd" clip-rule="evenodd" d="M240.847 51.4074C240.6 51.3838 240.517 51.1038 240.496 51.0161H240.698C240.781 51.0161 240.847 51.0802 240.847 51.1578V51.4041V51.4074Z" fill="#FFE11B"/>
<path fill-rule="evenodd" clip-rule="evenodd" d="M240.355 51.021C240.341 51.102 240.261 51.3988 240 51.4123V51.1627C240 51.0851 240.066 51.021 240.149 51.021H240.355Z" fill="#FFE11B"/>
<path fill-rule="evenodd" clip-rule="evenodd" d="M243.209 50.9077H243.902C244.011 50.9077 244.103 50.9931 244.103 51.099V51.5533C244.103 51.6626 244.015 51.748 243.902 51.748H243.209C243.1 51.748 243.012 51.6626 243.012 51.5533V51.099C243.012 50.9931 243.1 50.9077 243.209 50.9077Z" fill="#0682C4"/>
<path d="M243.292 51.021H243.842C243.927 51.021 243.993 51.0857 243.993 51.1639V51.494C243.993 51.5757 243.927 51.6404 243.842 51.6404H243.292C243.211 51.6404 243.145 51.5757 243.145 51.494V51.1639C243.145 51.0857 243.211 51.021 243.292 51.021Z" fill="#231F20"/>
<path fill-rule="evenodd" clip-rule="evenodd" d="M243.988 51.4074C243.741 51.3838 243.658 51.1038 243.637 51.0161H243.842C243.925 51.0161 243.991 51.0802 243.991 51.1578V51.4041L243.988 51.4074Z" fill="#FFE11B"/>
<path fill-rule="evenodd" clip-rule="evenodd" d="M243.491 51.021C243.474 51.102 243.397 51.3988 243.137 51.4123V51.1627C243.137 51.0851 243.203 51.021 243.283 51.021H243.491Z" fill="#FFE11B"/>
<path fill-rule="evenodd" clip-rule="evenodd" d="M243.431 48.6349C243.357 48.3936 243.343 48.2746 243.571 48.2746H244.072C244.377 48.2678 244.251 48.4989 244.223 48.7233C244.184 49.0191 244.184 49.1108 244.184 49.1108C244.184 49.1108 243.431 48.6417 243.431 48.6383" fill="#E5252B"/>
<path fill-rule="evenodd" clip-rule="evenodd" d="M241.982 50.3705C241.231 50.3705 240.201 50.4355 239.538 50.4834C239.03 50.521 238.635 50.1448 238.974 49.7891C239.697 49.0299 241.457 48.0757 241.989 48.0757C242.557 48.0757 244.281 49.0299 245.004 49.7891C245.343 50.1448 245.004 50.4834 244.489 50.4834C243.922 50.4834 242.733 50.3705 241.982 50.3705Z" fill="#F49824"/>
<path d="M242.395 52.0708C242.395 52.0172 242.436 51.9736 242.491 51.9736C242.546 51.9736 242.584 52.0172 242.584 52.0708C242.584 52.1244 242.543 52.1646 242.491 52.1646C242.439 52.1646 242.395 52.1211 242.395 52.0708Z" fill="#231F20"/>
<path fill-rule="evenodd" clip-rule="evenodd" d="M241.985 52.7469C241.686 52.7469 241.446 52.7914 241.446 52.7914C241.09 51.7825 241.414 50.8352 241.985 50.8352C242.557 50.8352 242.885 51.7859 242.525 52.7914C242.525 52.7914 242.296 52.7469 241.985 52.7469ZM242.514 52.8256C242.811 52.8701 243.008 52.9556 243.008 53.0513C243.008 53.195 242.553 53.3147 241.989 53.3147C241.425 53.3147 240.97 53.195 240.97 53.0513C240.97 52.9556 241.164 52.8701 241.46 52.8256C241.46 52.8256 241.781 52.788 241.989 52.788C242.197 52.788 242.518 52.8256 242.518 52.8256M242.56 52.7948C242.934 51.7483 242.571 50.7873 241.989 50.7907C241.407 50.7907 241.044 51.7517 241.418 52.7948C241.129 52.8495 240.938 52.9419 240.938 53.0513C240.938 53.0855 240.959 53.1163 240.995 53.1471C240.508 52.9419 240.462 52.6033 240.73 52.511C240.959 52.4323 241.241 52.3263 241.241 52.3263C241.093 51.6218 241.322 50.6778 241.993 50.6778C242.663 50.6778 242.892 51.6218 242.74 52.3263C242.74 52.3263 243.019 52.4357 243.251 52.511C243.512 52.5965 243.474 52.935 242.991 53.1437C243.026 53.1129 243.043 53.0821 243.043 53.0479C243.043 52.9419 242.853 52.8461 242.564 52.7914M243.463 48.6292C243.407 48.4069 243.403 48.3146 243.601 48.3146H244.034C244.32 48.3112 244.204 48.5232 244.179 48.7387C244.165 48.8686 244.154 48.9747 244.151 49.0533C243.922 48.896 243.689 48.7558 243.467 48.6292M242.962 53.1984C244.345 53.4241 245.018 52.3023 244.577 51.6218C244.235 51.1293 244.154 50.7155 244.144 50.5034C243.237 50.459 242.613 50.4145 241.989 50.4077C241.365 50.4145 240.741 50.459 239.834 50.5034C239.82 50.7155 239.739 51.1293 239.397 51.6218C238.956 52.3023 239.63 53.4241 241.012 53.1984C240.427 52.9829 240.353 52.617 240.667 52.4973C240.896 52.4118 241.203 52.3023 241.203 52.3023C241.051 51.5773 241.315 50.6197 241.985 50.6197C242.659 50.6197 242.924 51.5739 242.768 52.3023C242.768 52.3023 243.075 52.4118 243.304 52.4973C243.618 52.6136 243.544 52.9829 242.959 53.1984M241.989 50.3187C241.21 50.329 240.473 50.3837 239.605 50.4384C239.066 50.4726 238.762 50.1238 239.101 49.7613C239.602 49.2312 241.312 48.1368 241.989 48.1368C242.666 48.1368 244.373 49.2312 244.877 49.7613C245.216 50.1204 244.912 50.4726 244.376 50.4384C243.509 50.3837 242.768 50.3324 241.993 50.3187M243.364 48.5711C243.357 48.5506 243.35 48.5266 243.347 48.5061C243.308 48.3762 243.347 48.2325 243.576 48.2325H244.08C244.376 48.2325 244.345 48.4309 244.292 48.6224C244.257 48.7592 244.228 48.9336 244.214 49.0978C244.214 49.0978 244.627 49.3919 244.856 49.58C245.575 50.1717 245.106 50.5547 244.419 50.5239C244.348 50.5205 244.281 50.5171 244.214 50.5137C244.218 50.7086 244.278 51.0711 244.595 51.485C245.392 52.4118 244.334 53.5746 242.842 53.2463C242.596 53.3249 242.204 53.3625 241.989 53.3625C241.774 53.3625 241.382 53.3249 241.132 53.2463C239.64 53.5746 238.582 52.4118 239.379 51.485C239.697 51.0746 239.757 50.712 239.76 50.5137L239.559 50.5239C238.872 50.5581 238.403 50.1717 239.122 49.58C240.194 48.7045 241.488 48.0547 241.989 48.0513C242.264 48.0513 242.779 48.253 243.364 48.5745" fill="#231F20"/>
<path d="M240.764 51.7669H240.069C239.946 51.7669 239.848 51.6715 239.848 51.5522V51.099C239.848 50.9831 239.946 50.8877 240.069 50.8877H240.764C240.884 50.8877 240.982 50.9831 240.982 51.099V51.5522C240.982 51.6715 240.884 51.7669 240.764 51.7669ZM240.072 50.9286C239.974 50.9286 239.893 51.007 239.893 51.099V51.5522C239.893 51.6476 239.974 51.726 240.072 51.726H240.768C240.866 51.726 240.943 51.6476 240.943 51.5522V51.099C240.943 51.0036 240.863 50.9286 240.768 50.9286H240.072Z" fill="#231F20"/>
<path d="M243.906 51.7669H243.214C243.094 51.7669 242.996 51.6715 242.996 51.5522V51.099C242.996 50.9831 243.094 50.8877 243.214 50.8877H243.906C244.029 50.8877 244.127 50.9831 244.127 51.099V51.5522C244.127 51.6715 244.029 51.7669 243.906 51.7669ZM243.21 50.9286C243.112 50.9286 243.035 51.007 243.035 51.099V51.5522C243.035 51.6476 243.115 51.726 243.21 51.726H243.902C244.001 51.726 244.081 51.6476 244.081 51.5522V51.099C244.081 51.0036 244.001 50.9286 243.902 50.9286H243.21Z" fill="#231F20"/>
<path d="M34.6135 40.2422V24.878H40.2377C43.9226 24.878 45.7327 26.7958 45.7327 29.8773C45.7327 33.3251 43.5778 35.4153 40.1516 35.4153H37.6519V40.2422H34.6135ZM37.6519 32.8941H39.9361C41.5953 32.8941 42.6081 31.9244 42.6081 30.0497C42.6081 28.3042 41.66 27.5285 40.0007 27.5285H37.6519V32.8941ZM54.9429 40.2422C54.5981 39.6819 54.2749 39.057 54.0378 38.1951C53.3914 39.725 51.9692 40.4792 50.4392 40.4792C48.7369 40.4792 47.3793 39.5742 47.3793 37.6348C47.3793 34.0577 51.4951 34.3594 53.7362 33.3035C53.6069 31.7089 52.4648 31.2995 51.0426 31.2995C50.0513 31.2995 48.9739 31.4934 47.8965 31.7304V29.1231C49.1463 28.8214 50.3746 28.649 51.4735 28.649C54.4042 28.649 56.5806 29.8773 56.5806 33.4328V36.3634C56.5806 37.4193 56.6021 38.5614 56.8176 40.2422H54.9429ZM50.2884 37.1607C50.2884 37.8934 50.7409 38.2597 51.4304 38.2597C52.4648 38.2597 53.7362 37.29 53.7362 35.5446V35.0705C52.0554 35.8678 50.2884 35.6092 50.2884 37.1607ZM63.2686 36.7944C62.9885 36.7944 62.7083 36.7728 62.4282 36.7513C62.105 36.9237 61.9757 37.2038 61.9757 37.5055C61.9757 38.2813 63.1178 38.3028 64.6046 38.4321C66.781 38.6045 69.1729 38.9924 69.1729 41.5136C69.1729 43.927 66.6086 45.0906 63.1393 45.0906C59.9932 45.0906 57.8168 44.2287 57.8168 42.16C57.8168 40.5439 59.4545 39.8328 60.7905 39.9405C60.0363 39.6173 59.5407 39.057 59.5407 38.3244C59.5407 37.3331 60.3811 36.7297 61.3723 36.5143C59.6484 35.9324 58.7434 34.5102 58.7434 32.7001C58.7434 30.3729 60.4457 28.649 63.3979 28.649C64.109 28.649 64.7339 28.7567 65.2726 28.9076C65.3373 28.9291 65.445 28.9507 65.5312 28.9507C66.2854 28.9507 66.4578 28.2827 66.4578 27.5069C66.4578 27.1406 66.3932 26.7311 66.3285 26.3864H69.0221C69.0652 26.6665 69.1083 26.9251 69.1083 27.2052C69.1083 28.9291 67.8585 29.7695 66.7379 29.7695C66.6086 29.7695 66.4794 29.748 66.3716 29.7264C67.3844 30.4591 67.9231 31.4934 67.9231 32.8294C67.9231 34.9628 66.2208 36.7944 63.2686 36.7944ZM63.3117 34.7257C64.4753 34.7257 65.1218 34.0577 65.1218 32.7217C65.1218 31.3426 64.5184 30.6961 63.3332 30.6961C62.1696 30.6961 61.5447 31.2995 61.5447 32.6786C61.5447 34.0362 62.1481 34.7257 63.3117 34.7257ZM60.575 41.4705C60.575 42.591 61.9541 42.8711 63.3763 42.8711C64.8847 42.8711 66.1561 42.591 66.1561 41.729C66.1561 40.587 63.9366 40.7378 62.0834 40.4577C61.243 40.393 60.575 40.8025 60.575 41.4705ZM77.2912 40.2422C76.9465 39.6819 76.6232 39.057 76.3862 38.1951C75.7397 39.725 74.3175 40.4792 72.7876 40.4792C71.0852 40.4792 69.7277 39.5742 69.7277 37.6348C69.7277 34.0577 73.8435 34.3594 76.0845 33.3035C75.9552 31.7089 74.8131 31.2995 73.3909 31.2995C72.3997 31.2995 71.3223 31.4934 70.2448 31.7304V29.1231C71.4946 28.8214 72.7229 28.649 73.8219 28.649C76.7525 28.649 78.929 29.8773 78.929 33.4328V36.3634C78.929 37.4193 78.9505 38.5614 79.166 40.2422H77.2912ZM72.6367 37.1607C72.6367 37.8934 73.0893 38.2597 73.7788 38.2597C74.8131 38.2597 76.0845 37.29 76.0845 35.5446V35.0705C74.4037 35.8678 72.6367 35.6092 72.6367 37.1607ZM88.7846 31.6658C86.7159 31.5796 85.5092 32.0106 85.0136 32.8294V40.2422H81.9968V33.1742C81.9968 32.0752 81.9752 30.6315 81.8459 28.886H83.7638C84.1732 29.4247 84.5611 30.416 84.755 31.3426C85.2937 29.5971 86.5005 28.649 88.7846 28.649V31.6658ZM100.293 40.4792C96.9315 40.4792 94.5612 38.626 94.5612 34.5533C94.5612 30.6746 97.0393 28.649 100.422 28.649C101.177 28.649 101.995 28.7567 102.814 28.9507V31.4719C102.082 31.321 101.371 31.2348 100.767 31.2348C98.8278 31.2348 97.5565 32.0537 97.5565 34.5749C97.5565 37.0961 98.8063 37.8934 100.724 37.8934C101.371 37.8934 102.082 37.8072 102.814 37.6563V40.1775C101.931 40.3499 101.09 40.4792 100.293 40.4792ZM109.84 40.4792C106.22 40.4792 104.41 37.9149 104.41 34.6826C104.41 31.321 106.349 28.649 110.055 28.649C113.654 28.649 115.486 31.2133 115.486 34.4456C115.486 37.8072 113.546 40.4792 109.84 40.4792ZM109.948 38.0658C111.672 38.0658 112.49 36.7082 112.49 34.5533C112.49 32.3554 111.693 31.0624 109.948 31.0624C108.202 31.0624 107.383 32.42 107.383 34.5749C107.383 36.7728 108.202 38.0658 109.948 38.0658ZM125.563 33.4759C125.563 32.0106 124.809 31.3641 123.581 31.3641C122.438 31.3641 121.641 31.9028 121.146 32.6355V40.2422H118.129V33.1742C118.129 32.0752 118.107 30.6315 117.978 28.886H119.896C120.284 29.4032 120.628 30.2867 120.844 31.1271C121.318 29.8557 122.46 28.649 124.529 28.649C126.856 28.649 128.58 29.9419 128.58 33.0018V40.2422H125.563V33.4759Z" fill="#1D1D1D"/>
<g clip-path="url(#clip1_10761_22862)">
<path d="M313.476 21.3232C309.322 21.3232 305.942 24.7027 305.942 28.8566V33.1601C305.942 33.2085 305.881 33.2921 305.837 33.3053C305.427 33.4417 305.097 33.5605 304.794 33.6749C304.433 33.8157 304.16 34.2161 304.16 34.6078V44.4908C304.16 44.8781 304.433 45.2785 304.789 45.4237C307.566 46.5238 310.488 47.0826 313.476 47.0826C316.463 47.0826 319.385 46.5238 322.162 45.4237C322.523 45.2829 322.791 44.8825 322.791 44.4908V34.6078C322.791 34.2161 322.518 33.8157 322.157 33.6749C321.854 33.5561 321.524 33.4417 321.115 33.3053C321.066 33.2877 321.009 33.2085 321.009 33.1601V28.8566C321.009 24.7027 317.629 21.3232 313.476 21.3232ZM311.425 37.6176C311.425 36.4823 312.345 35.567 313.476 35.567C314.606 35.567 315.526 36.4867 315.526 37.6176C315.526 38.37 315.104 38.9993 314.501 39.3557V42.7483C314.501 43.316 314.043 43.7736 313.476 43.7736C312.908 43.7736 312.45 43.316 312.45 42.7483V39.3557C311.847 38.9993 311.425 38.37 311.425 37.6176ZM318.417 28.8566V32.5704C316.798 32.2228 315.135 32.0468 313.476 32.0468C311.817 32.0468 310.158 32.2228 308.534 32.5704V28.861C308.534 26.1372 310.752 23.9194 313.476 23.9194C316.199 23.915 318.417 26.1284 318.417 28.8566Z" fill="#1D1D1D"/>
</g>
</g>
<defs>
<filter id="filter0_f_10761_22862" x="-87.5499" y="-31.8912" width="246.444" height="210.089" filterUnits="userSpaceOnUse" color-interpolation-filters="sRGB">
<feFlood flood-opacity="0" result="BackgroundImageFix"/>
<feBlend mode="normal" in="SourceGraphic" in2="BackgroundImageFix" result="shape"/>
<feGaussianBlur stdDeviation="25.2652" result="effect1_foregroundBlur_10761_22862"/>
</filter>
<filter id="filter1_f_10761_22862" x="178.684" y="-92.629" width="258.924" height="226.066" filterUnits="userSpaceOnUse" color-interpolation-filters="sRGB">
<feFlood flood-opacity="0" result="BackgroundImageFix"/>
<feBlend mode="normal" in="SourceGraphic" in2="BackgroundImageFix" result="shape"/>
<feGaussianBlur stdDeviation="25.2652" result="effect1_foregroundBlur_10761_22862"/>
</filter>
<linearGradient id="paint0_linear_10761_22862" x1="25.0221" y1="60.3726" x2="90.6132" y2="88.1267" gradientUnits="userSpaceOnUse">
<stop stop-color="#E51B2D"/>
<stop offset="1" stop-color="#E51B2D"/>
</linearGradient>
<linearGradient id="paint1_linear_10761_22862" x1="298.352" y1="6.41461" x2="352.572" y2="55.1758" gradientUnits="userSpaceOnUse">
<stop stop-color="#E51B2D"/>
<stop offset="1" stop-color="#E51B2D"/>
</linearGradient>
<clipPath id="clip0_10761_22862">
<rect width="361.622" height="63.8793" rx="5.44611" fill="white"/>
</clipPath>
<clipPath id="clip1_10761_22862">
<rect width="18.6309" height="25.7594" fill="white" transform="translate(304.16 21.3223)"/>
</clipPath>
</defs>
</svg>
