<svg width="380" height="75" viewBox="0 0 380 75" fill="none" xmlns="http://www.w3.org/2000/svg">
<g clip-path="url(#clip0_10761_23291)">
<rect width="375.697" height="124.511" transform="translate(-5.36719 0.0336914)" fill="#F8991D"/>
<mask id="mask0_10761_23291" style="mask-type:alpha" maskUnits="userSpaceOnUse" x="-2" y="3" width="382" height="69">
<rect x="-1.09375" y="3.7959" width="380.139" height="67.6959" rx="18.8767" fill="#00126D"/>
</mask>
<g mask="url(#mask0_10761_23291)">
<rect x="-1.09375" y="3.7959" width="380.139" height="67.6959" rx="11.2827" fill="#00126D"/>
<ellipse cx="28.2722" cy="6.03619" rx="355.936" ry="111.894" fill="url(#paint0_radial_10761_23291)"/>
<ellipse cx="341.272" cy="10.8391" rx="441.639" ry="70.8264" fill="url(#paint1_radial_10761_23291)"/>
<ellipse cx="395.503" cy="42.9627" rx="355.936" ry="22.9383" fill="url(#paint2_radial_10761_23291)"/>
<ellipse cx="317.405" cy="67.5753" rx="355.936" ry="35.2466" fill="url(#paint3_radial_10761_23291)"/>
<ellipse cx="23.1277" cy="93.0325" rx="355.936" ry="47.8347" fill="url(#paint4_radial_10761_23291)"/>
<ellipse cx="-8.83713" cy="77.8419" rx="355.936" ry="38.044" fill="url(#paint5_radial_10761_23291)"/>
<ellipse cx="-8.83713" cy="48.4927" rx="355.936" ry="38.044" fill="url(#paint6_radial_10761_23291)"/>
<ellipse cx="70.095" cy="-16.5496" rx="165.615" ry="46.9567" fill="url(#paint7_radial_10761_23291)"/>
</g>
<rect x="11.9805" y="7.62256" width="356.094" height="59.5685" rx="5.44611" fill="white"/>
<path d="M42.3557 45.7852V30.4209H47.9799C51.6648 30.4209 53.4749 32.3388 53.4749 35.4202C53.4749 38.868 51.32 40.9582 47.8937 40.9582H45.3941V45.7852H42.3557ZM45.3941 38.437H47.6783C49.3375 38.437 50.3503 37.4674 50.3503 35.5926C50.3503 33.8472 49.4021 33.0714 47.7429 33.0714H45.3941V38.437ZM62.6851 45.7852C62.3403 45.2249 62.0171 44.6 61.78 43.738C61.1336 45.268 59.7114 46.0222 58.1814 46.0222C56.479 46.0222 55.1215 45.1171 55.1215 43.1778C55.1215 39.6007 59.2373 39.9024 61.4783 38.8465C61.3491 37.2519 60.207 36.8424 58.7848 36.8424C57.7935 36.8424 56.7161 37.0364 55.6386 37.2734V34.666C56.8885 34.3643 58.1167 34.192 59.2157 34.192C62.1464 34.192 64.3228 35.4202 64.3228 38.9758V41.9064C64.3228 42.9623 64.3443 44.1044 64.5598 45.7852H62.6851ZM58.0306 42.7037C58.0306 43.4363 58.4831 43.8027 59.1726 43.8027C60.207 43.8027 61.4783 42.833 61.4783 41.0875V40.6135C59.7975 41.4108 58.0306 41.1522 58.0306 42.7037ZM71.0108 42.3374C70.7307 42.3374 70.4505 42.3158 70.1704 42.2943C69.8472 42.4667 69.7179 42.7468 69.7179 43.0485C69.7179 43.8242 70.8599 43.8458 72.3468 43.9751C74.5232 44.1475 76.9151 44.5353 76.9151 47.0565C76.9151 49.47 74.3508 50.6336 70.8815 50.6336C67.7354 50.6336 65.559 49.7717 65.559 47.703C65.559 46.0868 67.1967 45.3757 68.5327 45.4835C67.7785 45.1602 67.2829 44.6 67.2829 43.8673C67.2829 42.8761 68.1233 42.2727 69.1145 42.0572C67.3906 41.4754 66.4856 40.0532 66.4856 38.2431C66.4856 35.9158 68.1879 34.192 71.1401 34.192C71.8512 34.192 72.4761 34.2997 73.0148 34.4505C73.0795 34.4721 73.1872 34.4936 73.2734 34.4936C74.0276 34.4936 74.2 33.8256 74.2 33.0499C74.2 32.6835 74.1353 32.2741 74.0707 31.9293H76.7643C76.8074 32.2095 76.8505 32.4681 76.8505 32.7482C76.8505 34.4721 75.6007 35.3125 74.4801 35.3125C74.3508 35.3125 74.2215 35.2909 74.1138 35.2694C75.1266 36.002 75.6653 37.0364 75.6653 38.3724C75.6653 40.5057 73.963 42.3374 71.0108 42.3374ZM71.0539 40.2687C72.2175 40.2687 72.864 39.6007 72.864 38.2647C72.864 36.8855 72.2606 36.2391 71.0754 36.2391C69.9118 36.2391 69.2869 36.8424 69.2869 38.2216C69.2869 39.5791 69.8903 40.2687 71.0539 40.2687ZM68.3172 47.0134C68.3172 48.134 69.6963 48.4141 71.1185 48.4141C72.6269 48.4141 73.8983 48.134 73.8983 47.272C73.8983 46.1299 71.6788 46.2808 69.8256 46.0006C68.9852 45.936 68.3172 46.3454 68.3172 47.0134ZM85.0334 45.7852C84.6887 45.2249 84.3654 44.6 84.1284 43.738C83.4819 45.268 82.0597 46.0222 80.5298 46.0222C78.8274 46.0222 77.4698 45.1171 77.4698 43.1778C77.4698 39.6007 81.5856 39.9024 83.8267 38.8465C83.6974 37.2519 82.5553 36.8424 81.1331 36.8424C80.1419 36.8424 79.0644 37.0364 77.987 37.2734V34.666C79.2368 34.3643 80.4651 34.192 81.5641 34.192C84.4947 34.192 86.6711 35.4202 86.6711 38.9758V41.9064C86.6711 42.9623 86.6927 44.1044 86.9082 45.7852H85.0334ZM80.3789 42.7037C80.3789 43.4363 80.8314 43.8027 81.521 43.8027C82.5553 43.8027 83.8267 42.833 83.8267 41.0875V40.6135C82.1459 41.4108 80.3789 41.1522 80.3789 42.7037ZM96.5268 37.2088C94.4581 37.1226 93.2514 37.5536 92.7558 38.3724V45.7852H89.739V38.7172C89.739 37.6182 89.7174 36.1744 89.5881 34.429H91.506C91.9154 34.9677 92.3033 35.9589 92.4972 36.8855C93.0359 35.1401 94.2426 34.192 96.5268 34.192V37.2088ZM108.035 46.0222C104.674 46.0222 102.303 44.169 102.303 40.0963C102.303 36.2175 104.781 34.192 108.165 34.192C108.919 34.192 109.738 34.2997 110.557 34.4936V37.0148C109.824 36.864 109.113 36.7778 108.509 36.7778C106.57 36.7778 105.299 37.5966 105.299 40.1178C105.299 42.639 106.548 43.4363 108.466 43.4363C109.113 43.4363 109.824 43.3502 110.557 43.1993V45.7205C109.673 45.8929 108.833 46.0222 108.035 46.0222ZM117.582 46.0222C113.962 46.0222 112.152 43.4579 112.152 40.2256C112.152 36.864 114.091 34.192 117.798 34.192C121.396 34.192 123.228 36.7562 123.228 39.9886C123.228 43.3502 121.288 46.0222 117.582 46.0222ZM117.69 43.6087C119.414 43.6087 120.233 42.2512 120.233 40.0963C120.233 37.8983 119.435 36.6054 117.69 36.6054C115.944 36.6054 115.126 37.963 115.126 40.1178C115.126 42.3158 115.944 43.6087 117.69 43.6087ZM133.305 39.0189C133.305 37.5536 132.551 36.9071 131.323 36.9071C130.181 36.9071 129.383 37.4458 128.888 38.1785V45.7852H125.871V38.7172C125.871 37.6182 125.849 36.1744 125.72 34.429H127.638C128.026 34.9462 128.371 35.8297 128.586 36.6701C129.06 35.3987 130.202 34.192 132.271 34.192C134.598 34.192 136.322 35.4849 136.322 38.5448V45.7852H133.305V39.0189Z" fill="#1D1D1D"/>
<g clip-path="url(#clip1_10761_23291)">
<path d="M321.222 26.8638C317.068 26.8638 313.688 30.2432 313.688 34.3971V38.7006C313.688 38.749 313.627 38.8326 313.583 38.8458C313.174 38.9822 312.844 39.101 312.54 39.2154C312.179 39.3562 311.906 39.7567 311.906 40.1483V50.0314C311.906 50.4186 312.179 50.819 312.535 50.9642C315.312 52.0643 318.234 52.6231 321.222 52.6231C324.209 52.6231 327.131 52.0643 329.908 50.9642C330.269 50.8234 330.537 50.423 330.537 50.0314V40.1483C330.537 39.7567 330.264 39.3562 329.903 39.2154C329.6 39.0966 329.27 38.9822 328.861 38.8458C328.812 38.8282 328.755 38.749 328.755 38.7006V34.3971C328.755 30.2432 325.376 26.8638 321.222 26.8638ZM319.171 43.1581C319.171 42.0228 320.091 41.1075 321.222 41.1075C322.353 41.1075 323.272 42.0272 323.272 43.1581C323.272 43.9105 322.85 44.5398 322.247 44.8962V48.2888C322.247 48.8565 321.789 49.3141 321.222 49.3141C320.654 49.3141 320.196 48.8565 320.196 48.2888V44.8962C319.594 44.5398 319.171 43.9105 319.171 43.1581ZM326.163 34.3971V38.1109C324.544 37.7633 322.881 37.5873 321.222 37.5873C319.563 37.5873 317.904 37.7633 316.28 38.1109V34.4015C316.28 31.6777 318.498 29.4599 321.222 29.4599C323.945 29.4555 326.163 31.6689 326.163 34.3971Z" fill="#1D1D1D"/>
</g>
<path d="M170.022 44.1245C169.974 44.3559 169.927 44.5897 169.879 44.8212C168.688 45.0195 167.493 45.1518 166.297 45.225C167.566 44.8826 168.809 44.5213 170.022 44.1245Z" fill="#ED1C27"/>
<path d="M196.638 21.3863C193.231 30.7562 186.219 39.215 176.754 42.9323C176.754 42.9323 177.134 41.0748 177.136 41.0748C184.819 36.6991 190.062 28.8633 192.181 20.4564C192.93 20.0504 194.973 18.8916 194.973 18.8916C194.973 18.8916 196.051 20.4824 196.638 21.3863Z" fill="#ED1C27"/>
<path d="M180.518 24.6044C180.587 24.2645 180.694 24.0521 181.081 24.0238C182.739 23.894 184.395 23.6273 186.049 23.6414C188.092 23.6556 189.443 25.0882 189.71 27.2596C190.762 25.0764 191.589 22.7941 192.18 20.4552C192.152 20.4339 192.123 20.4151 192.095 20.3962C190.463 19.2893 188.598 18.9919 186.683 18.9116C182.77 18.7417 178.981 19.497 175.237 20.5236C175.038 20.5803 174.807 20.8824 174.76 21.1066C174.429 22.7068 168.578 51.1893 168.578 51.1893H172.956C174.189 51.1893 175.247 50.2452 175.496 49.0321C175.498 49.0368 180.233 26.0039 180.518 24.6044Z" fill="#1D1D1D"/>
<path d="M195.352 24.5127C191.864 32.0629 186.008 38.6973 178.406 42.2234C190.719 45.7188 198.823 33.6796 195.352 24.5127Z" fill="#1D1D1D"/>
<path d="M167.055 30.5212C158.113 21.9372 142.868 31.7343 145.313 43.4077C146.833 50.6699 154.744 52.2819 161.146 50.5684C165.209 49.4828 164.724 45.5672 164.724 45.5672C159.628 46.7379 149.931 45.6852 150.727 41.8169C154.647 42.9097 160.621 43.1693 164.814 41.0286C170.286 38.2342 169.352 33.0843 167.055 30.5212ZM163.306 35.4138C161.94 38.2153 154.133 38.1917 151.323 37.3727C153.086 33.3982 157.721 31.0239 161.971 32.7444C163.254 33.266 163.824 34.3423 163.306 35.4138Z" fill="#1D1D1D"/>
<path d="M223.356 29.0601C219.569 27.8257 215.027 27.2593 211.701 27.2593C202.899 27.2593 197.359 35.1304 197.618 42.0363C197.718 44.6868 198.613 50.7028 206.674 51.3944C208.912 51.5855 211.048 51.3 212.917 49.9263C212.932 49.9145 213.062 49.7989 213.031 49.9641C212.965 50.3488 212.815 51.1938 212.815 51.1938C212.815 51.1938 217.018 51.1938 219.011 51.1938C219.386 51.1938 219.438 50.9365 219.493 50.6745C220.926 43.712 222.368 36.7637 223.783 29.7965C223.874 29.3575 223.786 29.197 223.356 29.0601ZM216.526 33.2093C215.77 36.7991 215.039 40.3936 214.276 43.9858C214.21 44.295 214.048 44.5758 213.81 44.7859C212 46.3861 209.891 46.9124 207.534 46.3743C203.016 45.3429 203.757 38.9775 205.339 35.9069C206.781 33.1125 210.04 31.5335 213.359 31.9607C216.68 32.3856 216.611 32.7915 216.526 33.2093Z" fill="#1D1D1D"/>
<path d="M300.849 35.6591C300.386 30.1646 296.019 27.2593 290.778 27.2593C279.789 27.2593 276.159 36.3813 276.494 42.7207C276.814 48.8076 282.233 51.6422 287.692 51.1347C292.764 50.835 296.575 48.5338 298.932 44.0259C300.295 41.4132 301.179 38.6589 300.849 35.6591ZM285.692 45.9825C280.855 44.9936 282.495 38.6377 283.504 36.7637C285.942 32.2369 289.263 32.0292 291.151 32.3266C293.646 32.716 295.062 34.4861 294.922 37.4764C294.71 42.0033 291.32 47.1319 285.692 45.9825Z" fill="#1D1D1D"/>
<path d="M223.289 61.787L224.109 57.7534C224.232 57.2814 224.676 56.9453 225.163 56.931C227.62 56.8618 228.461 56.4327 229.689 55.093C230.627 53.8962 231.338 52.9355 232.126 51.8294C232.231 51.684 232.24 51.4241 232.202 51.2334C230.872 44.456 227.515 27.2608 227.515 27.2608C227.515 27.2608 233.635 27.206 234.02 29.6709C234.759 34.3911 236.507 43.9339 236.59 44.3105C236.806 43.9363 242.529 34.0764 245.207 29.3491C246.521 27.0295 251.526 27.2608 253.179 27.2608C248.245 35.5353 238.662 51.5815 237.168 54.075C233.286 60.545 229.87 61.8371 226.292 61.7918C225.318 61.7799 223.289 61.787 223.289 61.787Z" fill="#1D1D1D"/>
<path d="M272.037 44.5946C271.69 46.2774 271.06 49.3385 271.039 49.4471C271.003 49.6265 270.927 49.8247 270.687 49.9144C267.383 51.1417 263.855 51.7199 260.645 50.5894C250.259 46.9359 253.048 30.3557 263.895 27.717C269.221 26.4213 274.533 28.2976 274.792 28.3779C275.094 28.4723 275.282 28.7744 275.22 29.0812C275.032 30.004 274.436 32.9259 274.41 33.0321C271.405 32.0668 268.247 31.3682 265.178 32.4397C259.077 34.5733 257.752 44.9722 263.819 46.1901C266.727 46.7754 269.388 45.7511 272.037 44.5946Z" fill="#1D1D1D"/>
<path d="M257.362 60.2613C258.202 60.4334 260.276 60.3798 260.324 59.0642C260.324 58.5365 259.622 58.0432 258.955 57.9017C258.131 57.7296 257.607 57.7257 256.775 57.9017C256.262 58.0929 256.104 57.6034 256.57 57.4389C257.453 57.1253 260.899 57.0603 261.061 59.0642C260.919 61.0452 257.91 60.9037 257.232 60.7699C256.964 60.7202 256.759 60.5978 256.759 60.2689V58.6206C256.759 58.2305 257.358 58.2344 257.358 58.6206V60.2613H257.362Z" fill="#ED1C27"/>
<path d="M263.839 57.9406C263.168 57.9406 262.04 59.9254 261.705 60.6367C261.508 61.0612 260.877 60.7591 261.078 60.3308C261.433 59.5659 262.778 57.256 263.831 57.279C264.884 57.2599 266.228 59.5659 266.583 60.3308C266.78 60.7591 266.153 61.0612 265.956 60.6367C265.625 59.9254 264.505 57.9406 263.839 57.9406Z" fill="#ED1C27"/>
<path d="M268.529 60.1764C269.199 60.1764 270.327 58.1916 270.658 57.4803C270.855 57.0558 271.486 57.3579 271.285 57.7824C270.93 58.5472 269.585 60.8571 268.533 60.838C267.48 60.8571 266.135 58.5511 265.78 57.7824C265.583 57.3541 266.21 57.052 266.411 57.4803C266.742 58.1916 267.858 60.1764 268.529 60.1764Z" fill="#ED1C27"/>
<path d="M272.424 57.6196V60.5108C272.424 60.9429 271.75 60.9276 271.75 60.4955V57.6119C271.75 57.1645 272.424 57.1607 272.424 57.6196Z" fill="#ED1C27"/>
<path d="M275.646 60.1764C276.316 60.1764 277.444 58.1916 277.775 57.4803C277.972 57.0558 278.603 57.3579 278.402 57.7824C278.043 58.5472 276.699 60.8571 275.646 60.838C274.593 60.8571 273.248 58.5511 272.893 57.7824C272.696 57.3541 273.323 57.052 273.52 57.4803C273.852 58.1916 274.968 60.1764 275.638 60.1764" fill="#ED1C27"/>
<path d="M280.824 59.358C281.021 59.7634 281.585 60.0923 282.129 60.207C282.95 60.3829 283.474 60.3829 284.306 60.207C284.803 60.0502 284.977 60.5168 284.507 60.6697C283.584 60.9719 280.201 61.0789 280.004 59.0674C280.114 57.1514 282.816 57.2011 283.849 57.3349C284.353 57.4 284.251 57.9162 283.723 57.8092C283.032 57.7212 281.155 57.6141 280.789 58.8188H282.713C283.013 58.8188 283.013 59.358 282.713 59.358H280.824Z" fill="#ED1C27"/>
<path d="M291.554 60.2642C292.394 60.4363 294.468 60.3827 294.515 59.0672C294.515 58.5394 293.813 58.0461 293.143 57.9046C292.323 57.7325 291.798 57.7287 290.966 57.9046C290.453 58.0958 290.296 57.6063 290.761 57.4418C291.648 57.1283 295.091 57.0632 295.252 59.0672C295.111 61.0482 292.102 60.9067 291.427 60.7728C291.159 60.7231 290.954 60.6007 290.954 60.2718V58.6236C290.954 58.2335 291.554 58.2373 291.554 58.6236V60.2642Z" fill="#ED1C27"/>
<path d="M298.033 57.9406C297.362 57.9406 296.23 59.9254 295.899 60.6367C295.702 61.0612 295.075 60.7591 295.272 60.3308C295.631 59.5659 296.976 57.256 298.025 57.279C299.078 57.2599 300.422 59.5659 300.777 60.3308C300.974 60.7591 300.347 61.0612 300.15 60.6367C299.819 59.9254 298.703 57.9406 298.033 57.9406Z" fill="#ED1C27"/>
<path d="M279.538 57.6196V60.5108C279.538 60.9429 278.863 60.9276 278.863 60.4955V57.6119C278.863 57.1645 279.538 57.1607 279.538 57.6196Z" fill="#ED1C27"/>
<path d="M287.639 59.6482C287.221 58.9101 286.764 57.9311 286.448 57.9081C285.671 57.9081 286.022 59.3919 286.011 60.5507C286.007 60.9599 285.336 60.9599 285.336 60.5048C285.336 59.0286 285.009 57.2656 286.464 57.2656C286.89 57.2656 287.292 57.8852 287.655 58.4665C288.073 59.2084 288.57 60.1874 288.881 60.2103C289.658 60.2103 289.287 58.7571 289.303 57.5983C289.307 57.1891 289.978 57.1891 289.978 57.6442C289.978 59.1242 290.325 60.8566 288.869 60.8566C288.44 60.8566 288.002 60.2371 287.639 59.652" fill="#ED1C27"/>
<path fill-rule="evenodd" clip-rule="evenodd" d="M248.012 57.9839C248.026 58.0933 248.012 58.5619 247.571 59.2048C247.109 59.9128 247.839 61.0961 249.313 60.7951C249.638 60.908 249.987 60.9251 250.213 60.9217C250.438 60.9217 250.791 60.908 251.115 60.7986C252.59 61.0995 253.316 59.9128 252.854 59.2048C252.41 58.5653 252.399 58.0933 252.413 57.9839H248.019H248.012Z" fill="#E5252B"/>
<path fill-rule="evenodd" clip-rule="evenodd" d="M250.207 60.9124C248.77 60.8749 248.51 60.2331 248.904 60.0999C249.137 60.0214 249.439 59.8916 249.439 59.8916C249.284 59.1679 249.538 58.2427 250.21 58.2461C250.883 58.2461 251.126 59.1986 250.974 59.9087C250.974 59.9087 251.28 60.0146 251.506 60.1033C251.882 60.2433 251.643 60.8783 250.207 60.9158" fill="#0682C4"/>
<path fill-rule="evenodd" clip-rule="evenodd" d="M249.671 60.4081C249.288 59.3753 249.625 58.4072 250.212 58.4072C250.771 58.4106 251.151 59.348 250.757 60.4047C250.757 60.4047 250.571 60.3638 250.195 60.3638C249.913 60.3638 249.674 60.4081 249.674 60.4081" fill="#FFE11B"/>
<path fill-rule="evenodd" clip-rule="evenodd" d="M250.205 60.9284C250.785 60.9284 251.239 60.809 251.239 60.6419C251.239 60.4748 250.785 60.3521 250.205 60.3521C249.625 60.3521 249.172 60.4714 249.172 60.6419C249.172 60.8125 249.625 60.9284 250.205 60.9284Z" fill="#F49824"/>
<path fill-rule="evenodd" clip-rule="evenodd" d="M248.294 58.4966H248.991C249.101 58.4966 249.189 58.582 249.189 58.6879V59.1422C249.189 59.2515 249.101 59.3369 248.991 59.3369H248.294C248.185 59.3369 248.094 59.2515 248.094 59.1422V58.6879C248.094 58.582 248.182 58.4966 248.294 58.4966Z" fill="#0682C4"/>
<path d="M248.373 58.6099H248.921C249.005 58.6099 249.071 58.6745 249.071 58.7528V59.0829C249.071 59.1646 249.005 59.2292 248.921 59.2292H248.373C248.289 59.2292 248.223 59.1646 248.223 59.0829V58.7528C248.223 58.6745 248.289 58.6099 248.373 58.6099Z" fill="#231F20"/>
<path fill-rule="evenodd" clip-rule="evenodd" d="M249.07 58.9963C248.823 58.9727 248.74 58.6927 248.719 58.605H248.92C249.004 58.605 249.07 58.6691 249.07 58.7467V58.9929V58.9963Z" fill="#FFE11B"/>
<path fill-rule="evenodd" clip-rule="evenodd" d="M248.577 58.6099C248.563 58.6908 248.483 58.9877 248.223 59.0012V58.7515C248.223 58.674 248.289 58.6099 248.372 58.6099H248.577Z" fill="#FFE11B"/>
<path fill-rule="evenodd" clip-rule="evenodd" d="M251.432 58.4966H252.125C252.234 58.4966 252.326 58.582 252.326 58.6879V59.1422C252.326 59.2515 252.238 59.3369 252.125 59.3369H251.432C251.322 59.3369 251.234 59.2515 251.234 59.1422V58.6879C251.234 58.582 251.322 58.4966 251.432 58.4966Z" fill="#0682C4"/>
<path d="M251.515 58.6099H252.065C252.149 58.6099 252.216 58.6745 252.216 58.7528V59.0829C252.216 59.1646 252.149 59.2292 252.065 59.2292H251.515C251.434 59.2292 251.367 59.1646 251.367 59.0829V58.7528C251.367 58.6745 251.434 58.6099 251.515 58.6099Z" fill="#231F20"/>
<path fill-rule="evenodd" clip-rule="evenodd" d="M252.211 58.9963C251.964 58.9727 251.88 58.6927 251.859 58.605H252.065C252.148 58.605 252.214 58.6691 252.214 58.7467V58.9929L252.211 58.9963Z" fill="#FFE11B"/>
<path fill-rule="evenodd" clip-rule="evenodd" d="M251.714 58.6099C251.697 58.6908 251.62 58.9877 251.359 59.0012V58.7515C251.359 58.674 251.425 58.6099 251.505 58.6099H251.714Z" fill="#FFE11B"/>
<path fill-rule="evenodd" clip-rule="evenodd" d="M251.654 56.2238C251.58 55.9824 251.566 55.8634 251.794 55.8634H252.295C252.6 55.8566 252.473 56.0878 252.445 56.3122C252.407 56.6079 252.407 56.6997 252.407 56.6997C252.407 56.6997 251.654 56.2306 251.654 56.2272" fill="#E5252B"/>
<path fill-rule="evenodd" clip-rule="evenodd" d="M250.205 57.9594C249.453 57.9594 248.424 58.0244 247.761 58.0722C247.253 58.1099 246.858 57.7337 247.197 57.378C247.919 56.6187 249.679 55.6646 250.212 55.6646C250.779 55.6646 252.504 56.6187 253.227 57.378C253.565 57.7337 253.227 58.0722 252.712 58.0722C252.144 58.0722 250.956 57.9594 250.205 57.9594Z" fill="#F49824"/>
<path d="M250.617 59.6597C250.617 59.6061 250.659 59.5625 250.714 59.5625C250.769 59.5625 250.807 59.6061 250.807 59.6597C250.807 59.7133 250.766 59.7535 250.714 59.7535C250.662 59.7535 250.617 59.7099 250.617 59.6597Z" fill="#231F20"/>
<path fill-rule="evenodd" clip-rule="evenodd" d="M250.208 60.3358C249.908 60.3358 249.669 60.3803 249.669 60.3803C249.312 59.3714 249.637 58.424 250.208 58.424C250.779 58.424 251.107 59.3748 250.748 60.3803C250.748 60.3803 250.518 60.3358 250.208 60.3358ZM250.737 60.4145C251.033 60.4589 251.231 60.5444 251.231 60.6402C251.231 60.7838 250.776 60.9035 250.212 60.9035C249.647 60.9035 249.192 60.7838 249.192 60.6402C249.192 60.5444 249.386 60.4589 249.683 60.4145C249.683 60.4145 250.004 60.3768 250.212 60.3768C250.42 60.3768 250.741 60.4145 250.741 60.4145M250.783 60.3837C251.157 59.3372 250.794 58.3761 250.212 58.3796C249.63 58.3796 249.267 59.3406 249.64 60.3837C249.351 60.4384 249.161 60.5307 249.161 60.6402C249.161 60.6744 249.182 60.7052 249.217 60.7359C248.731 60.5307 248.685 60.1922 248.953 60.0998C249.182 60.0212 249.464 59.9151 249.464 59.9151C249.316 59.2106 249.545 58.2667 250.215 58.2667C250.885 58.2667 251.114 59.2106 250.963 59.9151C250.963 59.9151 251.241 60.0246 251.474 60.0998C251.735 60.1853 251.696 60.5239 251.213 60.7325C251.248 60.7017 251.266 60.671 251.266 60.6368C251.266 60.5307 251.076 60.435 250.786 60.3803M251.686 56.2181C251.629 55.9958 251.626 55.9035 251.823 55.9035H252.257C252.543 55.9001 252.426 56.1121 252.402 56.3276C252.387 56.4575 252.377 56.5635 252.373 56.6422C252.144 56.4849 251.911 56.3446 251.689 56.2181M251.185 60.7872C252.567 61.013 253.241 59.8912 252.8 59.2106C252.458 58.7181 252.377 58.3043 252.366 58.0923C251.46 58.0478 250.836 58.0034 250.212 57.9965C249.587 58.0034 248.963 58.0478 248.057 58.0923C248.043 58.3043 247.962 58.7181 247.62 59.2106C247.179 59.8912 247.852 61.013 249.235 60.7872C248.649 60.5718 248.575 60.2059 248.889 60.0861C249.118 60.0006 249.425 59.8912 249.425 59.8912C249.274 59.1662 249.538 58.2086 250.208 58.2086C250.882 58.2086 251.146 59.1627 250.991 59.8912C250.991 59.8912 251.298 60.0006 251.527 60.0861C251.841 60.2024 251.767 60.5718 251.181 60.7872M250.212 57.9076C249.432 57.9179 248.695 57.9726 247.828 58.0273C247.288 58.0615 246.985 57.7127 247.323 57.3501C247.824 56.82 249.535 55.7256 250.212 55.7256C250.889 55.7256 252.596 56.82 253.1 57.3501C253.438 57.7092 253.135 58.0615 252.599 58.0273C251.732 57.9726 250.991 57.9213 250.215 57.9076M251.587 56.16C251.58 56.1395 251.573 56.1155 251.569 56.095C251.531 55.965 251.569 55.8214 251.799 55.8214H252.303C252.599 55.8214 252.567 56.0198 252.514 56.2113C252.479 56.3481 252.451 56.5225 252.437 56.6867C252.437 56.6867 252.849 56.9808 253.079 57.1689C253.798 57.7605 253.329 58.1436 252.641 58.1128C252.571 58.1094 252.504 58.106 252.437 58.1025C252.44 58.2975 252.5 58.66 252.818 59.0738C253.615 60.0006 252.557 61.1634 251.065 60.8351C250.818 60.9138 250.427 60.9514 250.212 60.9514C249.997 60.9514 249.605 60.9138 249.355 60.8351C247.863 61.1634 246.805 60.0006 247.602 59.0738C247.919 58.6634 247.979 58.3009 247.983 58.1025L247.782 58.1128C247.094 58.147 246.625 57.7605 247.345 57.1689C248.417 56.2934 249.711 55.6436 250.212 55.6401C250.487 55.6401 251.002 55.8419 251.587 56.1634" fill="#231F20"/>
<path d="M248.987 59.3557H248.292C248.169 59.3557 248.07 59.2603 248.07 59.1411V58.6878C248.07 58.572 248.169 58.4766 248.292 58.4766H248.987C249.106 58.4766 249.205 58.572 249.205 58.6878V59.1411C249.205 59.2603 249.106 59.3557 248.987 59.3557ZM248.295 58.5175C248.197 58.5175 248.116 58.5958 248.116 58.6878V59.1411C248.116 59.2365 248.197 59.3148 248.295 59.3148H248.99C249.089 59.3148 249.166 59.2365 249.166 59.1411V58.6878C249.166 58.5924 249.085 58.5175 248.99 58.5175H248.295Z" fill="#231F20"/>
<path d="M252.128 59.3557H251.436C251.317 59.3557 251.219 59.2603 251.219 59.1411V58.6878C251.219 58.572 251.317 58.4766 251.436 58.4766H252.128C252.251 58.4766 252.35 58.572 252.35 58.6878V59.1411C252.35 59.2603 252.251 59.3557 252.128 59.3557ZM251.433 58.5175C251.335 58.5175 251.257 58.5958 251.257 58.6878V59.1411C251.257 59.2365 251.338 59.3148 251.433 59.3148H252.125C252.223 59.3148 252.304 59.2365 252.304 59.1411V58.6878C252.304 58.5924 252.223 58.5175 252.125 58.5175H251.433Z" fill="#231F20"/>
</g>
<defs>
<radialGradient id="paint0_radial_10761_23291" cx="0" cy="0" r="1" gradientUnits="userSpaceOnUse" gradientTransform="translate(28.2722 6.03619) rotate(90) scale(111.894 355.936)">
<stop stop-color="#F8991D"/>
<stop offset="0.93" stop-color="#F8991D" stop-opacity="0"/>
</radialGradient>
<radialGradient id="paint1_radial_10761_23291" cx="0" cy="0" r="1" gradientUnits="userSpaceOnUse" gradientTransform="translate(341.272 10.8391) rotate(90) scale(70.8264 441.639)">
<stop stop-color="#BCBABA"/>
<stop offset="1" stop-color="#959595" stop-opacity="0"/>
</radialGradient>
<radialGradient id="paint2_radial_10761_23291" cx="0" cy="0" r="1" gradientUnits="userSpaceOnUse" gradientTransform="translate(395.503 42.9627) rotate(90) scale(22.9383 355.936)">
<stop stop-color="#959595"/>
<stop offset="1" stop-color="#959595" stop-opacity="0"/>
</radialGradient>
<radialGradient id="paint3_radial_10761_23291" cx="0" cy="0" r="1" gradientUnits="userSpaceOnUse" gradientTransform="translate(317.405 67.5753) rotate(90) scale(35.2466 355.936)">
<stop stop-color="#1D1D1D"/>
<stop offset="1" stop-color="#1D1D1D" stop-opacity="0"/>
</radialGradient>
<radialGradient id="paint4_radial_10761_23291" cx="0" cy="0" r="1" gradientUnits="userSpaceOnUse" gradientTransform="translate(23.1277 93.0325) rotate(90) scale(47.8347 355.936)">
<stop stop-color="#FFBB00"/>
<stop offset="0.93" stop-color="#FFBB00" stop-opacity="0"/>
</radialGradient>
<radialGradient id="paint5_radial_10761_23291" cx="0" cy="0" r="1" gradientUnits="userSpaceOnUse" gradientTransform="translate(-8.83713 77.8419) rotate(90) scale(38.044 355.936)">
<stop stop-color="#ED1C27"/>
<stop offset="1" stop-color="#ED1C27" stop-opacity="0"/>
</radialGradient>
<radialGradient id="paint6_radial_10761_23291" cx="0" cy="0" r="1" gradientUnits="userSpaceOnUse" gradientTransform="translate(-8.83713 48.4927) rotate(90) scale(38.044 355.936)">
<stop stop-color="#ED1C27"/>
<stop offset="1" stop-color="#ED1C27" stop-opacity="0"/>
</radialGradient>
<radialGradient id="paint7_radial_10761_23291" cx="0" cy="0" r="1" gradientUnits="userSpaceOnUse" gradientTransform="translate(70.095 -16.5496) rotate(90) scale(46.9567 165.615)">
<stop stop-color="#ED1C27"/>
<stop offset="1" stop-color="#ED1C27" stop-opacity="0"/>
</radialGradient>
<clipPath id="clip0_10761_23291">
<rect x="8.71484" y="5.44629" width="361.622" height="63.8793" rx="5.44611" fill="white"/>
</clipPath>
<clipPath id="clip1_10761_23291">
<rect width="18.6309" height="25.7594" fill="white" transform="translate(311.891 26.8647)"/>
</clipPath>
</defs>
</svg>
