<svg width="380" height="75" viewBox="0 0 380 75" fill="none" xmlns="http://www.w3.org/2000/svg">
<g clip-path="url(#clip0_10761_22080)">
<rect width="372.417" height="124.139" transform="translate(-2.09375 0.0507812)" fill="#9A9A9A"/>
<rect x="11.9297" y="7.60596" width="355.031" height="59.3907" rx="5.44611" fill="white"/>
<path d="M40.9746 45.6392V30.3208H46.582C50.2559 30.3208 52.0605 32.2329 52.0605 35.3052C52.0605 38.7427 49.9121 40.8267 46.4961 40.8267H44.0039V45.6392H40.9746ZM44.0039 38.313H46.2813C47.9355 38.313 48.9453 37.3462 48.9453 35.477C48.9453 33.7368 48 32.9634 46.3457 32.9634H44.0039V38.313ZM61.2433 45.6392C60.8995 45.0806 60.5773 44.4575 60.3409 43.5981C59.6964 45.1235 58.2784 45.8755 56.753 45.8755C55.0558 45.8755 53.7023 44.9731 53.7023 43.0396C53.7023 39.4731 57.8058 39.7739 60.0402 38.7212C59.9112 37.1313 58.7726 36.7231 57.3546 36.7231C56.3663 36.7231 55.2921 36.9165 54.2179 37.1528V34.5532C55.464 34.2524 56.6886 34.0806 57.7843 34.0806C60.7062 34.0806 62.8761 35.3052 62.8761 38.8501V41.772C62.8761 42.8247 62.8976 43.9634 63.1124 45.6392H61.2433ZM56.6026 42.5669C56.6026 43.2974 57.0538 43.6626 57.7413 43.6626C58.7726 43.6626 60.0402 42.6958 60.0402 40.9556V40.4829C58.3644 41.2778 56.6026 41.02 56.6026 42.5669ZM69.5441 42.2017C69.2648 42.2017 68.9855 42.1802 68.7062 42.1587C68.384 42.3306 68.2551 42.6099 68.2551 42.9106C68.2551 43.6841 69.3937 43.7056 70.8762 43.8345C73.0461 44.0063 75.4309 44.3931 75.4309 46.9067C75.4309 49.313 72.8742 50.4731 69.4152 50.4731C66.2785 50.4731 64.1086 49.6138 64.1086 47.5513C64.1086 45.9399 65.7414 45.231 67.0734 45.3384C66.3215 45.0161 65.8273 44.4575 65.8273 43.7271C65.8273 42.7388 66.6652 42.1372 67.6535 41.9224C65.9348 41.3423 65.0324 39.9243 65.0324 38.1196C65.0324 35.7993 66.7297 34.0806 69.673 34.0806C70.382 34.0806 71.0051 34.188 71.5422 34.3384C71.6066 34.3599 71.7141 34.3813 71.8 34.3813C72.5519 34.3813 72.7238 33.7153 72.7238 32.9419C72.7238 32.5767 72.6594 32.1685 72.5949 31.8247H75.2805C75.3234 32.104 75.3664 32.3618 75.3664 32.6411C75.3664 34.3599 74.1203 35.1978 73.0031 35.1978C72.8742 35.1978 72.7453 35.1763 72.6379 35.1548C73.6477 35.8853 74.1848 36.9165 74.1848 38.2485C74.1848 40.3755 72.4875 42.2017 69.5441 42.2017ZM69.5871 40.1392C70.7473 40.1392 71.3918 39.4731 71.3918 38.1411C71.3918 36.7661 70.7902 36.1216 69.6086 36.1216C68.4484 36.1216 67.8254 36.7231 67.8254 38.0981C67.8254 39.4517 68.4269 40.1392 69.5871 40.1392ZM66.8586 46.8638C66.8586 47.981 68.2336 48.2603 69.6516 48.2603C71.1555 48.2603 72.423 47.981 72.423 47.1216C72.423 45.9829 70.2101 46.1333 68.3625 45.854C67.5246 45.7896 66.8586 46.1978 66.8586 46.8638ZM83.5249 45.6392C83.1812 45.0806 82.8589 44.4575 82.6226 43.5981C81.9781 45.1235 80.5601 45.8755 79.0347 45.8755C77.3374 45.8755 75.9839 44.9731 75.9839 43.0396C75.9839 39.4731 80.0874 39.7739 82.3218 38.7212C82.1929 37.1313 81.0542 36.7231 79.6363 36.7231C78.648 36.7231 77.5738 36.9165 76.4995 37.1528V34.5532C77.7456 34.2524 78.9702 34.0806 80.0659 34.0806C82.9878 34.0806 85.1577 35.3052 85.1577 38.8501V41.772C85.1577 42.8247 85.1792 43.9634 85.3941 45.6392H83.5249ZM78.8843 42.5669C78.8843 43.2974 79.3355 43.6626 80.023 43.6626C81.0542 43.6626 82.3218 42.6958 82.3218 40.9556V40.4829C80.646 41.2778 78.8843 41.02 78.8843 42.5669ZM94.984 37.0884C92.9215 37.0024 91.7184 37.4321 91.2242 38.2485V45.6392H88.2164V38.5923C88.2164 37.4966 88.1949 36.0571 88.066 34.3169H89.9781C90.3863 34.854 90.773 35.8423 90.9664 36.7661C91.5035 35.0259 92.7066 34.0806 94.984 34.0806V37.0884ZM106.458 45.8755C103.107 45.8755 100.743 44.0278 100.743 39.9673C100.743 36.1001 103.214 34.0806 106.587 34.0806C107.339 34.0806 108.155 34.188 108.972 34.3813V36.895C108.241 36.7446 107.532 36.6587 106.931 36.6587C104.997 36.6587 103.73 37.4751 103.73 39.9888C103.73 42.5024 104.976 43.2974 106.888 43.2974C107.532 43.2974 108.241 43.2114 108.972 43.061V45.5747C108.091 45.7466 107.253 45.8755 106.458 45.8755ZM115.976 45.8755C112.367 45.8755 110.562 43.3188 110.562 40.0962C110.562 36.7446 112.496 34.0806 116.191 34.0806C119.779 34.0806 121.605 36.6372 121.605 39.8599C121.605 43.2114 119.672 45.8755 115.976 45.8755ZM116.084 43.4692C117.803 43.4692 118.619 42.1157 118.619 39.9673C118.619 37.7759 117.824 36.4868 116.084 36.4868C114.344 36.4868 113.527 37.8403 113.527 39.9888C113.527 42.1802 114.344 43.4692 116.084 43.4692ZM131.653 38.8931C131.653 37.4321 130.901 36.7876 129.676 36.7876C128.537 36.7876 127.742 37.3247 127.248 38.0552V45.6392H124.241V38.5923C124.241 37.4966 124.219 36.0571 124.09 34.3169H126.002C126.389 34.8325 126.733 35.7134 126.948 36.5513C127.42 35.2837 128.559 34.0806 130.621 34.0806C132.942 34.0806 134.66 35.3696 134.66 38.4204V45.6392H131.653V38.8931Z" fill="#1D1D1D"/>
<g clip-path="url(#clip1_10761_22080)">
<path d="M319.014 26.7012C314.873 26.7012 311.503 30.0705 311.503 34.212V38.5027C311.503 38.5509 311.442 38.6343 311.398 38.6474C310.99 38.7834 310.661 38.9019 310.358 39.0159C309.999 39.1563 309.727 39.5556 309.727 39.946V49.7996C309.727 50.1857 309.999 50.5849 310.354 50.7297C313.122 51.8265 316.035 52.3836 319.014 52.3836C321.993 52.3836 324.906 51.8265 327.674 50.7297C328.034 50.5893 328.302 50.1901 328.302 49.7996V39.946C328.302 39.5556 328.03 39.1563 327.67 39.0159C327.367 38.8975 327.038 38.7834 326.63 38.6474C326.582 38.6299 326.525 38.5509 326.525 38.5027V34.212C326.525 30.0705 323.156 26.7012 319.014 26.7012ZM316.97 42.9468C316.97 41.815 317.887 40.9024 319.014 40.9024C320.142 40.9024 321.059 41.8193 321.059 42.9468C321.059 43.6971 320.637 44.3244 320.036 44.6798V48.0623C320.036 48.6282 319.58 49.0845 319.014 49.0845C318.448 49.0845 317.992 48.6282 317.992 48.0623V44.6798C317.391 44.3244 316.97 43.6971 316.97 42.9468ZM323.941 34.212V37.9148C322.327 37.5682 320.668 37.3927 319.014 37.3927C317.36 37.3927 315.706 37.5682 314.087 37.9148V34.2164C314.087 31.5007 316.299 29.2896 319.014 29.2896C321.73 29.2852 323.941 31.492 323.941 34.212Z" fill="#1D1D1D"/>
</g>
<path d="M168.819 41.8716C168.772 42.1023 168.724 42.3354 168.677 42.5662C167.49 42.7639 166.298 42.8958 165.105 42.9688C166.371 42.6274 167.611 42.2671 168.819 41.8716Z" fill="#ED1C27"/>
<path d="M195.356 19.2011C191.96 28.543 184.968 36.9766 175.531 40.6828C175.531 40.6828 175.91 38.8309 175.913 38.8309C183.573 34.4682 188.8 26.6558 190.913 18.274C191.659 17.8693 193.696 16.7139 193.696 16.7139C193.696 16.7139 194.771 18.2999 195.356 19.2011Z" fill="#ED1C27"/>
<path d="M179.283 22.4096C179.352 22.0707 179.459 21.8589 179.845 21.8307C181.498 21.7013 183.149 21.4354 184.797 21.4495C186.834 21.4636 188.182 22.892 188.447 25.0568C189.496 22.8802 190.321 20.6047 190.911 18.2728C190.882 18.2516 190.854 18.2328 190.825 18.2139C189.198 17.1103 187.339 16.8138 185.43 16.7338C181.529 16.5644 177.751 17.3174 174.018 18.341C173.819 18.3975 173.589 18.6987 173.542 18.9222C173.213 20.5177 167.379 48.9152 167.379 48.9152H171.744C172.973 48.9152 174.027 47.9739 174.276 46.7644C174.279 46.7691 178.999 23.805 179.283 22.4096Z" fill="#1D1D1D"/>
<path d="M194.075 22.3184C190.598 29.846 184.759 36.4606 177.18 39.9762C189.456 43.4612 197.535 31.4579 194.075 22.3184Z" fill="#1D1D1D"/>
<path d="M165.86 28.3088C156.945 19.7505 141.746 29.5183 144.183 41.1569C145.699 48.3974 153.586 50.0046 159.969 48.2962C164.02 47.2138 163.536 43.31 163.536 43.31C158.456 44.4771 148.787 43.4276 149.581 39.5708C153.489 40.6603 159.446 40.9192 163.626 38.7849C169.081 35.9988 168.15 30.8643 165.86 28.3088ZM162.122 33.1868C160.761 35.98 152.977 35.9564 150.175 35.1399C151.933 31.1773 156.554 28.81 160.791 30.5254C162.07 31.0455 162.639 32.1185 162.122 33.1868Z" fill="#1D1D1D"/>
<path d="M221.994 26.8521C218.218 25.6214 213.69 25.0566 210.374 25.0566C201.598 25.0566 196.075 32.9043 196.333 39.7895C196.432 42.4321 197.325 48.4302 205.362 49.1197C207.593 49.3103 209.722 49.0256 211.586 47.656C211.601 47.6443 211.731 47.529 211.7 47.6937C211.634 48.0772 211.485 48.9197 211.485 48.9197C211.485 48.9197 215.675 48.9197 217.662 48.9197C218.036 48.9197 218.088 48.6632 218.143 48.402C219.571 41.4603 221.009 34.5327 222.42 27.5862C222.51 27.1486 222.423 26.9886 221.994 26.8521ZM215.184 30.9889C214.431 34.568 213.702 38.1518 212.941 41.7332C212.875 42.0415 212.714 42.3215 212.477 42.5309C210.672 44.1264 208.569 44.6511 206.219 44.1146C201.714 43.0863 202.453 36.7399 204.031 33.6785C205.468 30.8924 208.718 29.3181 212.027 29.7441C215.338 30.1676 215.27 30.5724 215.184 30.9889Z" fill="#1D1D1D"/>
<path d="M299.257 33.4314C298.795 27.9533 294.441 25.0566 289.216 25.0566C278.259 25.0566 274.64 34.1515 274.974 40.472C275.294 46.5407 280.696 49.3668 286.139 48.8608C291.196 48.562 294.995 46.2677 297.345 41.7732C298.705 39.1683 299.586 36.4222 299.257 33.4314ZM284.145 43.724C279.323 42.738 280.957 36.401 281.964 34.5327C284.394 30.0194 287.705 29.8123 289.588 30.1088C292.075 30.4971 293.487 32.2619 293.347 35.2433C293.136 39.7566 289.756 44.8699 284.145 43.724Z" fill="#1D1D1D"/>
<path d="M221.926 59.4813L222.743 55.4597C222.866 54.9891 223.309 54.654 223.795 54.6397C226.244 54.5708 227.082 54.143 228.307 52.8072C229.242 51.6141 229.95 50.6562 230.737 49.5534C230.841 49.4084 230.85 49.1493 230.813 48.9592C229.486 42.202 226.139 25.0581 226.139 25.0581C226.139 25.0581 232.241 25.0035 232.625 27.4611C233.361 32.1671 235.104 41.6814 235.187 42.057C235.403 41.6838 241.109 31.8534 243.778 27.1402C245.088 24.8276 250.078 25.0581 251.727 25.0581C246.807 33.308 237.253 49.3062 235.763 51.7923C231.893 58.243 228.487 59.5312 224.92 59.486C223.949 59.4742 221.926 59.4813 221.926 59.4813Z" fill="#1D1D1D"/>
<path d="M270.526 42.3402C270.18 44.018 269.553 47.07 269.531 47.1782C269.496 47.3571 269.42 47.5547 269.181 47.6442C265.886 48.8678 262.369 49.4443 259.169 48.3172C248.814 44.6745 251.594 28.1438 262.409 25.513C267.719 24.2212 273.015 26.0919 273.274 26.1719C273.574 26.266 273.762 26.5672 273.7 26.8731C273.513 27.7932 272.918 30.7064 272.892 30.8123C269.896 29.8498 266.748 29.1533 263.688 30.2216C257.606 32.3489 256.284 42.7167 262.333 43.9309C265.232 44.5145 267.885 43.4932 270.526 42.3402Z" fill="#1D1D1D"/>
<path d="M255.898 57.9599C256.736 58.1314 258.804 58.0781 258.851 56.7664C258.851 56.2402 258.151 55.7484 257.486 55.6073C256.665 55.4357 256.142 55.4319 255.312 55.6073C254.801 55.7979 254.644 55.3099 255.108 55.1459C255.989 54.8333 259.425 54.7685 259.586 56.7664C259.444 58.7415 256.445 58.6004 255.768 58.467C255.501 58.4174 255.297 58.2954 255.297 57.9675V56.3241C255.297 55.9352 255.894 55.939 255.894 56.3241V57.9599H255.898Z" fill="#ED1C27"/>
<path d="M262.354 55.6461C261.685 55.6461 260.561 57.625 260.227 58.3342C260.03 58.7574 259.401 58.4562 259.601 58.0292C259.955 57.2666 261.296 54.9636 262.346 54.9865C263.395 54.9674 264.736 57.2666 265.09 58.0292C265.287 58.4562 264.661 58.7574 264.465 58.3342C264.135 57.625 263.018 55.6461 262.354 55.6461Z" fill="#ED1C27"/>
<path d="M267.032 57.8753C267.7 57.8753 268.825 55.8964 269.155 55.1872C269.352 54.7639 269.981 55.0652 269.78 55.4884C269.426 56.251 268.086 58.554 267.036 58.5349C265.986 58.554 264.646 56.2548 264.292 55.4884C264.095 55.0613 264.72 54.7601 264.921 55.1872C265.251 55.8964 266.364 57.8753 267.032 57.8753Z" fill="#ED1C27"/>
<path d="M270.914 55.3261V58.2086C270.914 58.6395 270.242 58.6242 270.242 58.1934V55.3185C270.242 54.8724 270.914 54.8685 270.914 55.3261Z" fill="#ED1C27"/>
<path d="M274.13 57.8753C274.798 57.8753 275.923 55.8964 276.253 55.1872C276.449 54.7639 277.078 55.0652 276.878 55.4884C276.52 56.251 275.179 58.554 274.13 58.5349C273.08 58.554 271.739 56.2548 271.385 55.4884C271.189 55.0613 271.814 54.7601 272.011 55.1872C272.341 55.8964 273.453 57.8753 274.122 57.8753" fill="#ED1C27"/>
<path d="M279.29 57.0593C279.487 57.4635 280.049 57.7914 280.592 57.9058C281.41 58.0812 281.932 58.0812 282.762 57.9058C283.257 57.7495 283.43 58.2146 282.963 58.3671C282.043 58.6684 278.669 58.7751 278.473 56.7695C278.583 54.8593 281.276 54.9088 282.306 55.0423C282.809 55.1071 282.707 55.6219 282.18 55.5151C281.492 55.4274 279.621 55.3206 279.255 56.5217H281.174C281.472 56.5217 281.472 57.0593 281.174 57.0593H279.29Z" fill="#ED1C27"/>
<path d="M289.988 57.9628C290.825 58.1344 292.893 58.081 292.941 56.7694C292.941 56.2432 292.241 55.7513 291.572 55.6102C290.755 55.4386 290.232 55.4348 289.402 55.6102C288.891 55.8009 288.734 55.3128 289.198 55.1489C290.082 54.8362 293.515 54.7714 293.676 56.7694C293.534 58.7444 290.534 58.6033 289.862 58.4699C289.595 58.4203 289.39 58.2983 289.39 57.9704V56.3271C289.39 55.9381 289.988 55.942 289.988 56.3271V57.9628Z" fill="#ED1C27"/>
<path d="M296.446 55.6461C295.778 55.6461 294.649 57.625 294.319 58.3342C294.123 58.7574 293.497 58.4562 293.694 58.0292C294.052 57.2666 295.392 54.9636 296.438 54.9865C297.488 54.9674 298.829 57.2666 299.183 58.0292C299.379 58.4562 298.754 58.7574 298.557 58.3342C298.227 57.625 297.115 55.6461 296.446 55.6461Z" fill="#ED1C27"/>
<path d="M278.008 55.3261V58.2086C278.008 58.6395 277.336 58.6242 277.336 58.1934V55.3185C277.336 54.8724 278.008 54.8685 278.008 55.3261Z" fill="#ED1C27"/>
<path d="M286.085 57.3486C285.669 56.6127 285.212 55.6366 284.898 55.6137C284.123 55.6137 284.473 57.0931 284.462 58.2484C284.458 58.6564 283.789 58.6564 283.789 58.2027C283.789 56.7309 283.463 54.9731 284.914 54.9731C285.338 54.9731 285.739 55.5908 286.101 56.1704C286.518 56.9101 287.013 57.8862 287.324 57.9091C288.098 57.9091 287.729 56.4602 287.744 55.3049C287.748 54.8969 288.417 54.8969 288.417 55.3506C288.417 56.8262 288.763 58.5534 287.312 58.5534C286.883 58.5534 286.447 57.9358 286.085 57.3524" fill="#ED1C27"/>
<path fill-rule="evenodd" clip-rule="evenodd" d="M246.577 55.689C246.591 55.7981 246.577 56.2652 246.137 56.9063C245.677 57.6121 246.405 58.7919 247.874 58.4918C248.198 58.6043 248.546 58.6214 248.771 58.618C248.996 58.618 249.347 58.6043 249.671 58.4952C251.141 58.7953 251.865 57.6121 251.404 56.9063C250.961 56.2686 250.951 55.7981 250.965 55.689H246.584H246.577Z" fill="#E5252B"/>
<path fill-rule="evenodd" clip-rule="evenodd" d="M248.765 58.6096C247.333 58.5721 247.073 57.9322 247.466 57.7995C247.698 57.7212 248 57.5918 248 57.5918C247.845 56.8702 248.098 55.9478 248.768 55.9512C249.439 55.9512 249.681 56.9008 249.53 57.6088C249.53 57.6088 249.835 57.7144 250.06 57.8029C250.435 57.9424 250.197 58.5755 248.765 58.613" fill="#0682C4"/>
<path fill-rule="evenodd" clip-rule="evenodd" d="M248.229 58.1062C247.847 57.0765 248.183 56.1113 248.769 56.1113C249.326 56.1147 249.704 57.0493 249.312 58.1028C249.312 58.1028 249.126 58.062 248.751 58.062C248.471 58.062 248.232 58.1062 248.232 58.1062" fill="#FFE11B"/>
<path fill-rule="evenodd" clip-rule="evenodd" d="M248.761 58.6249C249.339 58.6249 249.791 58.5059 249.791 58.3393C249.791 58.1727 249.339 58.0503 248.761 58.0503C248.183 58.0503 247.73 58.1693 247.73 58.3393C247.73 58.5093 248.183 58.6249 248.761 58.6249Z" fill="#F49824"/>
<path fill-rule="evenodd" clip-rule="evenodd" d="M246.856 56.2007H247.551C247.66 56.2007 247.748 56.2858 247.748 56.3914V56.8443C247.748 56.9533 247.66 57.0385 247.551 57.0385H246.856C246.748 57.0385 246.656 56.9533 246.656 56.8443V56.3914C246.656 56.2858 246.744 56.2007 246.856 56.2007Z" fill="#0682C4"/>
<path d="M246.936 56.3135H247.481C247.565 56.3135 247.631 56.3779 247.631 56.456V56.7851C247.631 56.8665 247.565 56.931 247.481 56.931H246.936C246.852 56.931 246.785 56.8665 246.785 56.7851V56.456C246.785 56.3779 246.852 56.3135 246.936 56.3135Z" fill="#231F20"/>
<path fill-rule="evenodd" clip-rule="evenodd" d="M247.631 56.6987C247.385 56.6752 247.302 56.396 247.281 56.3086H247.482C247.565 56.3086 247.631 56.3725 247.631 56.4499V56.6954V56.6987Z" fill="#FFE11B"/>
<path fill-rule="evenodd" clip-rule="evenodd" d="M247.139 56.3135C247.125 56.3942 247.045 56.6902 246.785 56.7036V56.4547C246.785 56.3774 246.851 56.3135 246.934 56.3135H247.139Z" fill="#FFE11B"/>
<path fill-rule="evenodd" clip-rule="evenodd" d="M249.986 56.2007H250.677C250.786 56.2007 250.877 56.2858 250.877 56.3914V56.8443C250.877 56.9533 250.789 57.0385 250.677 57.0385H249.986C249.877 57.0385 249.789 56.9533 249.789 56.8443V56.3914C249.789 56.2858 249.877 56.2007 249.986 56.2007Z" fill="#0682C4"/>
<path d="M250.065 56.3135H250.614C250.698 56.3135 250.764 56.3779 250.764 56.456V56.7851C250.764 56.8665 250.698 56.931 250.614 56.931H250.065C249.984 56.931 249.918 56.8665 249.918 56.7851V56.456C249.918 56.3779 249.984 56.3135 250.065 56.3135Z" fill="#231F20"/>
<path fill-rule="evenodd" clip-rule="evenodd" d="M250.76 56.6987C250.514 56.6752 250.431 56.396 250.41 56.3086H250.615C250.698 56.3086 250.764 56.3725 250.764 56.4499V56.6954L250.76 56.6987Z" fill="#FFE11B"/>
<path fill-rule="evenodd" clip-rule="evenodd" d="M250.268 56.3135C250.25 56.3942 250.174 56.6902 249.914 56.7036V56.4547C249.914 56.3774 249.98 56.3135 250.06 56.3135H250.268Z" fill="#FFE11B"/>
<path fill-rule="evenodd" clip-rule="evenodd" d="M250.208 53.9346C250.135 53.694 250.121 53.5753 250.348 53.5753H250.847C251.151 53.5686 251.025 53.799 250.998 54.0227C250.959 54.3176 250.959 54.4091 250.959 54.4091C250.959 54.4091 250.208 53.9414 250.208 53.938" fill="#E5252B"/>
<path fill-rule="evenodd" clip-rule="evenodd" d="M248.762 55.6649C248.013 55.6649 246.986 55.7297 246.325 55.7775C245.819 55.815 245.425 55.4399 245.763 55.0853C246.483 54.3283 248.238 53.377 248.769 53.377C249.335 53.377 251.054 54.3283 251.775 55.0853C252.112 55.4399 251.775 55.7775 251.262 55.7775C250.695 55.7775 249.511 55.6649 248.762 55.6649Z" fill="#F49824"/>
<path d="M249.172 57.3601C249.172 57.3066 249.213 57.2632 249.268 57.2632C249.323 57.2632 249.361 57.3066 249.361 57.3601C249.361 57.4135 249.32 57.4536 249.268 57.4536C249.217 57.4536 249.172 57.4102 249.172 57.3601Z" fill="#231F20"/>
<path fill-rule="evenodd" clip-rule="evenodd" d="M248.765 58.0342C248.466 58.0342 248.227 58.0785 248.227 58.0785C247.872 57.0726 248.195 56.1281 248.765 56.1281C249.334 56.1281 249.661 57.076 249.303 58.0785C249.303 58.0785 249.074 58.0342 248.765 58.0342ZM249.292 58.1126C249.588 58.1569 249.785 58.2422 249.785 58.3377C249.785 58.4809 249.331 58.6002 248.768 58.6002C248.206 58.6002 247.752 58.4809 247.752 58.3377C247.752 58.2422 247.946 58.1569 248.241 58.1126C248.241 58.1126 248.561 58.0751 248.768 58.0751C248.976 58.0751 249.296 58.1126 249.296 58.1126M249.338 58.0819C249.711 57.0385 249.349 56.0804 248.768 56.0838C248.188 56.0838 247.826 57.0419 248.199 58.0819C247.911 58.1365 247.721 58.2286 247.721 58.3377C247.721 58.3718 247.742 58.4025 247.777 58.4331C247.292 58.2286 247.246 57.891 247.513 57.7989C247.742 57.7205 248.023 57.6148 248.023 57.6148C247.875 56.9124 248.104 55.9713 248.772 55.9713C249.44 55.9713 249.669 56.9124 249.517 57.6148C249.517 57.6148 249.795 57.7239 250.027 57.7989C250.287 57.8842 250.249 58.2217 249.767 58.4297C249.802 58.399 249.82 58.3684 249.82 58.3343C249.82 58.2285 249.63 58.1331 249.342 58.0785M250.238 53.9288C250.182 53.7071 250.178 53.6151 250.375 53.6151H250.808C251.092 53.6117 250.976 53.8231 250.952 54.0379C250.938 54.1675 250.927 54.2732 250.924 54.3516C250.695 54.1948 250.463 54.0549 250.242 53.9288M249.739 58.4843C251.117 58.7093 251.789 57.5909 251.349 56.9124C251.008 56.4214 250.927 56.0088 250.917 55.7974C250.013 55.753 249.391 55.7087 248.768 55.7019C248.146 55.7087 247.524 55.753 246.62 55.7974C246.606 56.0088 246.525 56.4214 246.184 56.9124C245.745 57.5909 246.416 58.7093 247.795 58.4843C247.211 58.2695 247.137 57.9046 247.45 57.7853C247.678 57.7 247.984 57.5909 247.984 57.5909C247.833 56.868 248.097 55.9133 248.765 55.9133C249.436 55.9133 249.7 56.8646 249.545 57.5909C249.545 57.5909 249.851 57.7 250.08 57.7853C250.393 57.9012 250.319 58.2695 249.735 58.4843M248.768 55.6132C247.991 55.6235 247.257 55.678 246.392 55.7326C245.854 55.7667 245.551 55.4189 245.889 55.0574C246.388 54.5289 248.093 53.4378 248.768 53.4378C249.443 53.4378 251.145 54.5289 251.648 55.0574C251.986 55.4155 251.683 55.7667 251.149 55.7326C250.284 55.678 249.545 55.6269 248.772 55.6132M250.14 53.8708C250.133 53.8504 250.126 53.8265 250.122 53.806C250.083 53.6765 250.122 53.5333 250.351 53.5333H250.853C251.149 53.5333 251.117 53.731 251.064 53.922C251.029 54.0584 251.001 54.2323 250.987 54.3959C250.987 54.3959 251.398 54.6892 251.627 54.8767C252.344 55.4666 251.877 55.8485 251.191 55.8178C251.121 55.8144 251.054 55.811 250.987 55.8076C250.991 56.0019 251.05 56.3634 251.367 56.776C252.161 57.7 251.107 58.8594 249.619 58.532C249.373 58.6104 248.983 58.648 248.768 58.648C248.554 58.648 248.164 58.6104 247.914 58.532C246.427 58.8594 245.372 57.7 246.167 56.776C246.483 56.3668 246.543 56.0054 246.546 55.8076L246.346 55.8178C245.66 55.8519 245.193 55.4666 245.91 54.8767C246.979 54.0038 248.269 53.3559 248.768 53.3525C249.043 53.3525 249.556 53.5537 250.14 53.8742" fill="#231F20"/>
<path d="M247.547 57.0572H246.853C246.731 57.0572 246.633 56.9621 246.633 56.8432V56.3913C246.633 56.2758 246.731 56.1807 246.853 56.1807H247.547C247.666 56.1807 247.764 56.2758 247.764 56.3913V56.8432C247.764 56.9621 247.666 57.0572 247.547 57.0572ZM246.857 56.2214C246.759 56.2214 246.678 56.2996 246.678 56.3913V56.8432C246.678 56.9383 246.759 57.0164 246.857 57.0164H247.55C247.648 57.0164 247.725 56.9383 247.725 56.8432V56.3913C247.725 56.2962 247.645 56.2214 247.55 56.2214H246.857Z" fill="#231F20"/>
<path d="M250.68 57.0572H249.991C249.871 57.0572 249.773 56.9621 249.773 56.8432V56.3913C249.773 56.2758 249.871 56.1807 249.991 56.1807H250.68C250.803 56.1807 250.901 56.2758 250.901 56.3913V56.8432C250.901 56.9621 250.803 57.0572 250.68 57.0572ZM249.987 56.2214C249.889 56.2214 249.812 56.2996 249.812 56.3913V56.8432C249.812 56.9383 249.892 57.0164 249.987 57.0164H250.677C250.775 57.0164 250.855 56.9383 250.855 56.8432V56.3913C250.855 56.2962 250.775 56.2214 250.677 56.2214H249.987Z" fill="#231F20"/>
</g>
<defs>
<clipPath id="clip0_10761_22080">
<rect x="8.70312" y="5.44727" width="361.622" height="63.6886" rx="5.44611" fill="white"/>
</clipPath>
<clipPath id="clip1_10761_22080">
<rect width="18.5753" height="25.6825" fill="white" transform="translate(309.727 26.7012)"/>
</clipPath>
</defs>
</svg>
