<svg width="299" height="71" viewBox="0 0 299 71" fill="none" xmlns="http://www.w3.org/2000/svg">
<path d="M22.1239 16.7266C22.105 16.8188 22.086 16.9121 22.0671 17.0044C21.5922 17.0835 21.1154 17.1362 20.6387 17.1654C21.1448 17.0288 21.6405 16.8848 22.1239 16.7266Z" fill="#ED1C27"/>
<path d="M32.7374 7.65979C31.3789 11.396 28.5826 14.7689 24.8086 16.2512C24.8086 16.2512 24.9602 15.5105 24.9611 15.5105C28.0246 13.7657 30.1153 10.6412 30.9602 7.28899C31.2586 7.12712 32.0733 6.66504 32.0733 6.66504C32.0733 6.66504 32.5034 7.29935 32.7374 7.65979Z" fill="#ED1C27"/>
<path d="M26.3089 8.94259C26.3364 8.80707 26.379 8.72237 26.5334 8.71108C27.1946 8.65932 27.8549 8.55297 28.5142 8.55862C29.3288 8.56426 29.8678 9.13552 29.9739 10.0013C30.3936 9.13081 30.7232 8.22076 30.9591 7.28812C30.9477 7.27965 30.9364 7.27212 30.925 7.26459C30.2742 6.82321 29.5306 6.70463 28.7671 6.67263C27.2069 6.60487 25.696 6.90603 24.2031 7.31541C24.1235 7.338 24.0316 7.45846 24.0127 7.54786C23.881 8.18594 21.5479 19.5433 21.5479 19.5433H23.2937C23.7853 19.5433 24.2069 19.1668 24.3063 18.6831C24.3073 18.685 26.1952 9.50067 26.3089 8.94259Z" fill="#1D1D1D"/>
<path d="M32.2247 8.90625C30.8341 11.9169 28.4991 14.5623 25.4678 15.9683C30.3775 17.3621 33.6087 12.5615 32.2247 8.90625Z" fill="#1D1D1D"/>
<path d="M20.94 11.3024C17.3744 7.87961 11.2957 11.7862 12.2704 16.4409C12.8767 19.3367 16.0312 19.9795 18.5841 19.2962C20.2039 18.8633 20.0107 17.302 20.0107 17.302C17.9788 17.7688 14.112 17.3491 14.4293 15.8066C15.9923 16.2423 18.3747 16.3458 20.0467 15.4922C22.2283 14.378 21.856 12.3245 20.94 11.3024ZM19.4452 13.2533C18.9005 14.3704 15.7877 14.361 14.6671 14.0345C15.37 12.4496 17.2181 11.5029 18.9128 12.189C19.4243 12.3969 19.6517 12.8261 19.4452 13.2533Z" fill="#1D1D1D"/>
<path d="M43.3903 10.719C41.8804 10.2268 40.0692 10.001 38.743 10.001C35.2333 10.001 33.0242 13.1396 33.1275 15.8933C33.1673 16.9501 33.5244 19.349 36.7385 19.6248C37.6309 19.701 38.4825 19.5871 39.228 19.0394C39.2337 19.0347 39.2858 18.9886 39.2735 19.0545C39.2469 19.2079 39.1873 19.5448 39.1873 19.5448C39.1873 19.5448 40.863 19.5448 41.6578 19.5448C41.8074 19.5448 41.8283 19.4422 41.8501 19.3377C42.4213 16.5615 42.9963 13.7908 43.5609 11.0127C43.5969 10.8376 43.5618 10.7736 43.3903 10.719ZM40.6669 12.3735C40.3657 13.8049 40.0739 15.2383 39.7698 16.6706C39.7433 16.7939 39.6789 16.9059 39.5842 16.9897C38.8623 17.6277 38.0212 17.8376 37.0814 17.623C35.2797 17.2118 35.5753 14.6736 36.2062 13.4492C36.7812 12.3349 38.0808 11.7053 39.4042 11.8757C40.7285 12.0451 40.701 12.2069 40.6669 12.3735Z" fill="#1D1D1D"/>
<path d="M74.2902 13.3504C74.1055 11.1595 72.3644 10.001 70.2747 10.001C65.8926 10.001 64.4451 13.6384 64.5787 16.1662C64.7066 18.5933 66.8673 19.7236 69.0442 19.5212C71.0666 19.4017 72.5861 18.4841 73.5258 16.6866C74.0695 15.6448 74.4219 14.5465 74.2902 13.3504ZM68.2466 17.4668C66.3179 17.0725 66.9715 14.5381 67.3741 13.7908C68.346 11.9858 69.6703 11.903 70.4234 12.0215C71.4181 12.1768 71.9826 12.8827 71.9268 14.075C71.8425 15.8801 70.4907 17.9251 68.2466 17.4668Z" fill="#1D1D1D"/>
<path d="M43.3633 23.7688L43.6901 22.1604C43.7394 21.9722 43.9165 21.8382 44.1107 21.8325C45.0902 21.8049 45.4255 21.6338 45.9153 21.0996C46.2894 20.6224 46.5727 20.2393 46.8872 19.7982C46.9288 19.7402 46.9326 19.6366 46.9175 19.5606C46.387 16.8581 45.0485 10.0016 45.0485 10.0016C45.0485 10.0016 47.4887 9.97971 47.6421 10.9626C47.9368 12.8447 48.634 16.6499 48.6671 16.8001C48.7533 16.6509 51.0353 12.7193 52.1029 10.8343C52.6267 9.90937 54.6227 10.0016 55.282 10.0016C53.3145 13.301 49.4931 19.6994 48.8973 20.6937C47.3494 23.2735 45.9872 23.7888 44.5606 23.7707C44.1723 23.7659 43.3633 23.7688 43.3633 23.7688Z" fill="#1D1D1D"/>
<path d="M62.8008 16.9142C62.6625 17.5852 62.4115 18.8058 62.4029 18.8491C62.3887 18.9206 62.3584 18.9997 62.2627 19.0354C60.9451 19.5248 59.5383 19.7554 58.2586 19.3046C54.1171 17.8477 55.2292 11.2364 59.5545 10.1843C61.6783 9.66762 63.7964 10.4158 63.8996 10.4478C64.0199 10.4854 64.0948 10.6059 64.0701 10.7283C63.9953 11.0962 63.7575 12.2613 63.7471 12.3037C62.5488 11.9188 61.2899 11.6402 60.066 12.0674C57.6334 12.9182 57.1048 17.0647 59.5241 17.5504C60.6836 17.7837 61.7446 17.3753 62.8008 16.9142Z" fill="#1D1D1D"/>
<path d="M56.9488 23.1613C57.2837 23.2299 58.1108 23.2086 58.1297 22.684C58.1297 22.4736 57.8498 22.2768 57.5841 22.2204C57.2554 22.1518 57.0463 22.1503 56.7145 22.2204C56.5101 22.2967 56.4472 22.1015 56.6328 22.0359C56.985 21.9109 58.3593 21.8849 58.4237 22.684C58.3671 23.4739 57.1674 23.4175 56.8969 23.3641C56.79 23.3443 56.7082 23.2955 56.7082 23.1644V22.5071C56.7082 22.3516 56.9472 22.3531 56.9472 22.5071V23.1613H56.9488Z" fill="#ED1C27"/>
<path d="M59.5303 22.2356C59.263 22.2356 58.8133 23.027 58.6797 23.3106C58.601 23.4799 58.3494 23.3594 58.4296 23.1886C58.5712 22.8837 59.1074 21.9626 59.5272 21.9717C59.947 21.9641 60.4832 22.8837 60.6247 23.1886C60.7034 23.3594 60.4533 23.4799 60.3747 23.3106C60.2426 23.027 59.7961 22.2356 59.5303 22.2356Z" fill="#ED1C27"/>
<path d="M61.4011 23.1275C61.6684 23.1275 62.1181 22.336 62.2502 22.0524C62.3288 21.8831 62.5804 22.0036 62.5002 22.1729C62.3587 22.4778 61.8225 23.3989 61.4027 23.3913C60.9828 23.3989 60.4467 22.4794 60.3051 22.1729C60.2265 22.0021 60.4765 21.8816 60.5567 22.0524C60.6888 22.336 61.1338 23.1275 61.4011 23.1275Z" fill="#ED1C27"/>
<path d="M62.9544 22.1078V23.2606C62.9544 23.4329 62.6855 23.4268 62.6855 23.2545V22.1047C62.6855 21.9263 62.9544 21.9248 62.9544 22.1078Z" fill="#ED1C27"/>
<path d="M64.2396 23.1275C64.5069 23.1275 64.9566 22.336 65.0887 22.0524C65.1673 21.8831 65.4189 22.0036 65.3387 22.1729C65.1956 22.4778 64.6594 23.3989 64.2396 23.3913C63.8198 23.3989 63.2836 22.4794 63.1421 22.1729C63.0634 22.0021 63.3135 21.8816 63.3921 22.0524C63.5242 22.336 63.9692 23.1275 64.2365 23.1275" fill="#ED1C27"/>
<path d="M66.3046 22.8008C66.3832 22.9624 66.6081 23.0935 66.8251 23.1393C67.1521 23.2094 67.3613 23.2094 67.693 23.1393C67.8912 23.0768 67.9603 23.2628 67.7732 23.3238C67.4053 23.4443 66.0562 23.487 65.9775 22.6849C66.0216 21.9209 67.0987 21.9407 67.5106 21.9941C67.7119 22.02 67.671 22.2259 67.4603 22.1832C67.1851 22.1481 66.4367 22.1054 66.2904 22.5857H67.0578C67.1773 22.5857 67.1773 22.8008 67.0578 22.8008H66.3046Z" fill="#ED1C27"/>
<path d="M70.5816 23.1623C70.9165 23.2309 71.7436 23.2096 71.7625 22.685C71.7625 22.4745 71.4826 22.2778 71.2153 22.2214C70.8882 22.1528 70.6791 22.1513 70.3473 22.2214C70.1429 22.2976 70.08 22.1025 70.2656 22.0369C70.6194 21.9118 71.9921 21.8859 72.0565 22.685C71.9999 23.4749 70.8002 23.4185 70.5313 23.3651C70.4244 23.3453 70.3426 23.2965 70.3426 23.1653V22.5081C70.3426 22.3525 70.5816 22.3541 70.5816 22.5081V23.1623Z" fill="#ED1C27"/>
<path d="M73.1656 22.2356C72.8983 22.2356 72.447 23.027 72.3149 23.3106C72.2363 23.4799 71.9863 23.3594 72.0649 23.1886C72.208 22.8837 72.7442 21.9626 73.1625 21.9717C73.5823 21.9641 74.1185 22.8837 74.26 23.1886C74.3386 23.3594 74.0886 23.4799 74.01 23.3106C73.8779 23.027 73.4329 22.2356 73.1656 22.2356Z" fill="#ED1C27"/>
<path d="M65.7913 22.1078V23.2606C65.7913 23.4329 65.5225 23.4268 65.5225 23.2545V22.1047C65.5225 21.9263 65.7913 21.9248 65.7913 22.1078Z" fill="#ED1C27"/>
<path d="M69.0227 22.9168C68.856 22.6225 68.6736 22.2321 68.5478 22.223C68.238 22.223 68.378 22.8147 68.3732 23.2767C68.3717 23.4399 68.1044 23.4399 68.1044 23.2584C68.1044 22.6698 67.9739 21.9668 68.5541 21.9668C68.7239 21.9668 68.8843 22.2138 69.0289 22.4456C69.1956 22.7415 69.3937 23.1318 69.518 23.141C69.8277 23.141 69.6799 22.5615 69.6862 22.0995C69.6878 21.9363 69.9551 21.9363 69.9551 22.1178C69.9551 22.7079 70.0935 23.3987 69.5132 23.3987C69.3418 23.3987 69.1673 23.1517 69.0227 22.9184" fill="#ED1C27"/>
<path fill-rule="evenodd" clip-rule="evenodd" d="M53.2209 22.2529C53.2266 22.2966 53.2209 22.4834 53.0452 22.7398C52.8609 23.0221 53.152 23.4939 53.7398 23.3739C53.8692 23.4189 54.0084 23.4257 54.0984 23.4244C54.1884 23.4244 54.329 23.4189 54.4584 23.3753C55.0462 23.4953 55.3358 23.0221 55.1516 22.7398C54.9744 22.4848 54.9702 22.2966 54.9758 22.2529H53.2237H53.2209Z" fill="#E5252B"/>
<path fill-rule="evenodd" clip-rule="evenodd" d="M54.0973 23.4206C53.5245 23.4056 53.4207 23.1497 53.5779 23.0966C53.6705 23.0653 53.7912 23.0136 53.7912 23.0136C53.7295 22.725 53.8305 22.3561 54.0987 22.3574C54.3668 22.3574 54.4636 22.7372 54.4033 23.0204C54.4033 23.0204 54.5254 23.0626 54.6152 23.098C54.7654 23.1538 54.67 23.407 54.0973 23.422" fill="#0682C4"/>
<path fill-rule="evenodd" clip-rule="evenodd" d="M53.8824 23.2197C53.7296 22.8079 53.8642 22.4219 54.0982 22.4219C54.3211 22.4232 54.4724 22.797 54.3155 23.2183C54.3155 23.2183 54.2412 23.202 54.0912 23.202C53.9791 23.202 53.8838 23.2197 53.8838 23.2197" fill="#FFE11B"/>
<path fill-rule="evenodd" clip-rule="evenodd" d="M54.0956 23.4271C54.3269 23.4271 54.5077 23.3795 54.5077 23.3129C54.5077 23.2462 54.3269 23.1973 54.0956 23.1973C53.8644 23.1973 53.6836 23.2449 53.6836 23.3129C53.6836 23.3808 53.8644 23.4271 54.0956 23.4271Z" fill="#F49824"/>
<path fill-rule="evenodd" clip-rule="evenodd" d="M53.3339 22.457H53.6119C53.6554 22.457 53.6905 22.4911 53.6905 22.5333V22.7145C53.6905 22.758 53.6554 22.7921 53.6119 22.7921H53.3339C53.2904 22.7921 53.2539 22.758 53.2539 22.7145V22.5333C53.2539 22.4911 53.289 22.457 53.3339 22.457Z" fill="#0682C4"/>
<path d="M53.3648 22.5029H53.583C53.6166 22.5029 53.6431 22.5287 53.6431 22.5599V22.6916C53.6431 22.7241 53.6166 22.7499 53.583 22.7499H53.3648C53.3313 22.7499 53.3047 22.7241 53.3047 22.6916V22.5599C53.3047 22.5287 53.3313 22.5029 53.3648 22.5029Z" fill="#231F20"/>
<path fill-rule="evenodd" clip-rule="evenodd" d="M53.6429 22.657C53.5445 22.6476 53.5112 22.5359 53.5029 22.501H53.5833C53.6166 22.501 53.6429 22.5265 53.6429 22.5575V22.6557V22.657Z" fill="#FFE11B"/>
<path fill-rule="evenodd" clip-rule="evenodd" d="M53.4471 22.5029C53.4415 22.5352 53.4096 22.6536 53.3057 22.659V22.5594C53.3057 22.5285 53.332 22.5029 53.3653 22.5029H53.4471Z" fill="#FFE11B"/>
<path fill-rule="evenodd" clip-rule="evenodd" d="M54.5854 22.457H54.862C54.9055 22.457 54.942 22.4911 54.942 22.5333V22.7145C54.942 22.758 54.9069 22.7921 54.862 22.7921H54.5854C54.5419 22.7921 54.5068 22.758 54.5068 22.7145V22.5333C54.5068 22.4911 54.5419 22.457 54.5854 22.457Z" fill="#0682C4"/>
<path d="M54.6173 22.5029H54.8369C54.8705 22.5029 54.897 22.5287 54.897 22.5599V22.6916C54.897 22.7241 54.8705 22.7499 54.8369 22.7499H54.6173C54.5852 22.7499 54.5586 22.7241 54.5586 22.6916V22.5599C54.5586 22.5287 54.5852 22.5029 54.6173 22.5029Z" fill="#231F20"/>
<path fill-rule="evenodd" clip-rule="evenodd" d="M54.8949 22.657C54.7965 22.6476 54.7632 22.5359 54.7549 22.501H54.8367C54.8699 22.501 54.8963 22.5265 54.8963 22.5575V22.6557L54.8949 22.657Z" fill="#FFE11B"/>
<path fill-rule="evenodd" clip-rule="evenodd" d="M54.698 22.5029C54.6911 22.5352 54.6606 22.6536 54.5566 22.659V22.5594C54.5566 22.5285 54.583 22.5029 54.6149 22.5029H54.698Z" fill="#FFE11B"/>
<path fill-rule="evenodd" clip-rule="evenodd" d="M54.6735 21.551C54.6441 21.4547 54.6386 21.4073 54.7294 21.4073H54.9291C55.0507 21.4046 55.0004 21.4968 54.9892 21.5862C54.9738 21.7041 54.9738 21.7407 54.9738 21.7407C54.9738 21.7407 54.6735 21.5537 54.6735 21.5523" fill="#E5252B"/>
<path fill-rule="evenodd" clip-rule="evenodd" d="M54.0965 22.2432C53.797 22.2432 53.3864 22.2691 53.122 22.2882C52.9195 22.3032 52.762 22.1532 52.897 22.0113C53.1853 21.7086 53.887 21.3281 54.0993 21.3281C54.3257 21.3281 55.0133 21.7086 55.3016 22.0113C55.4366 22.1532 55.3016 22.2882 55.0963 22.2882C54.8699 22.2882 54.396 22.2432 54.0965 22.2432Z" fill="#F49824"/>
<path d="M54.2598 22.9216C54.2598 22.9002 54.2763 22.8828 54.2983 22.8828C54.3204 22.8828 54.3355 22.9002 54.3355 22.9216C54.3355 22.9429 54.319 22.959 54.2983 22.959C54.2777 22.959 54.2598 22.9416 54.2598 22.9216Z" fill="#231F20"/>
<path fill-rule="evenodd" clip-rule="evenodd" d="M54.097 23.1907C53.9775 23.1907 53.8818 23.2085 53.8818 23.2085C53.7398 22.8062 53.8692 22.4284 54.097 22.4284C54.3248 22.4284 54.4556 22.8075 54.3121 23.2085C54.3121 23.2085 54.2207 23.1907 54.097 23.1907ZM54.3079 23.2221C54.426 23.2398 54.5048 23.2739 54.5048 23.3121C54.5048 23.3694 54.3234 23.4171 54.0984 23.4171C53.8734 23.4171 53.692 23.3694 53.692 23.3121C53.692 23.2739 53.7693 23.2398 53.8875 23.2221C53.8875 23.2221 54.0154 23.2071 54.0984 23.2071C54.1814 23.2071 54.3093 23.2221 54.3093 23.2221M54.3262 23.2098C54.4752 22.7925 54.3304 22.4093 54.0984 22.4107C53.8664 22.4107 53.7215 22.7939 53.8706 23.2098C53.7553 23.2317 53.6793 23.2685 53.6793 23.3121C53.6793 23.3258 53.6878 23.338 53.7018 23.3503C53.5078 23.2685 53.4895 23.1335 53.5964 23.0966C53.6878 23.0653 53.8003 23.023 53.8003 23.023C53.7412 22.7421 53.8326 22.3657 54.0998 22.3657C54.367 22.3657 54.4584 22.7421 54.3979 23.023C54.3979 23.023 54.509 23.0666 54.6018 23.0966C54.7059 23.1307 54.6904 23.2657 54.4977 23.3489C54.5118 23.3367 54.5188 23.3244 54.5188 23.3107C54.5188 23.2685 54.4429 23.2303 54.3276 23.2085M54.6862 21.5488C54.6637 21.4602 54.6623 21.4234 54.741 21.4234H54.914C55.0279 21.422 54.9815 21.5065 54.9716 21.5925C54.966 21.6443 54.9618 21.6866 54.9604 21.7179C54.869 21.6552 54.7762 21.5993 54.6876 21.5488M54.4865 23.3708C55.0377 23.4608 55.3063 23.0135 55.1305 22.7421C54.9941 22.5457 54.9618 22.3807 54.9576 22.2961C54.5962 22.2784 54.3473 22.2607 54.0984 22.258C53.8495 22.2607 53.6006 22.2784 53.2392 22.2961C53.2336 22.3807 53.2012 22.5457 53.0648 22.7421C52.8891 23.0135 53.1577 23.4608 53.7089 23.3708C53.4755 23.2848 53.4459 23.1389 53.5711 23.0912C53.6625 23.0571 53.7848 23.0135 53.7848 23.0135C53.7243 22.7244 53.8298 22.3425 54.097 22.3425C54.3656 22.3425 54.471 22.723 54.4092 23.0135C54.4092 23.0135 54.5315 23.0571 54.6229 23.0912C54.748 23.1376 54.7185 23.2848 54.4851 23.3708M54.0984 22.2225C53.7876 22.2266 53.4937 22.2484 53.1478 22.2702C52.9327 22.2839 52.8117 22.1448 52.9467 22.0002C53.1464 21.7888 53.8284 21.3525 54.0984 21.3525C54.3684 21.3525 55.049 21.7888 55.2501 22.0002C55.385 22.1434 55.2641 22.2839 55.0504 22.2702C54.7044 22.2484 54.4092 22.228 54.0998 22.2225M54.6468 21.5256C54.644 21.5175 54.6412 21.5079 54.6398 21.4997C54.6243 21.4479 54.6398 21.3906 54.7312 21.3906H54.9323C55.0504 21.3906 55.0377 21.4697 55.0166 21.5461C55.0026 21.6006 54.9913 21.6702 54.9857 21.7357C54.9857 21.7357 55.1502 21.8529 55.2416 21.9279C55.5285 22.1639 55.3414 22.3166 55.0672 22.3043C55.0391 22.303 55.0124 22.3016 54.9857 22.3002C54.9871 22.378 55.011 22.5225 55.1376 22.6875C55.4553 23.0571 55.0335 23.5208 54.4387 23.3898C54.3403 23.4212 54.1842 23.4362 54.0984 23.4362C54.0126 23.4362 53.8565 23.4212 53.7567 23.3898C53.1619 23.5208 52.74 23.0571 53.0578 22.6875C53.1844 22.5239 53.2083 22.3793 53.2097 22.3002L53.1295 22.3043C52.8553 22.318 52.6683 22.1639 52.9552 21.9279C53.3826 21.5788 53.8987 21.3197 54.0984 21.3184C54.2081 21.3184 54.4134 21.3988 54.6468 21.527" fill="#231F20"/>
<path d="M53.6096 22.7998H53.3324C53.2834 22.7998 53.2441 22.7617 53.2441 22.7142V22.5335C53.2441 22.4873 53.2834 22.4492 53.3324 22.4492H53.6096C53.6572 22.4492 53.6965 22.4873 53.6965 22.5335V22.7142C53.6965 22.7617 53.6572 22.7998 53.6096 22.7998ZM53.3338 22.4655C53.2946 22.4655 53.2623 22.4968 53.2623 22.5335V22.7142C53.2623 22.7522 53.2946 22.7835 53.3338 22.7835H53.611C53.6502 22.7835 53.6811 22.7522 53.6811 22.7142V22.5335C53.6811 22.4954 53.6488 22.4655 53.611 22.4655H53.3338Z" fill="#231F20"/>
<path d="M54.8627 22.7998H54.5868C54.5392 22.7998 54.5 22.7617 54.5 22.7142V22.5335C54.5 22.4873 54.5392 22.4492 54.5868 22.4492H54.8627C54.9117 22.4492 54.9509 22.4873 54.9509 22.5335V22.7142C54.9509 22.7617 54.9117 22.7998 54.8627 22.7998ZM54.5854 22.4655C54.5462 22.4655 54.5154 22.4968 54.5154 22.5335V22.7142C54.5154 22.7522 54.5476 22.7835 54.5854 22.7835H54.8613C54.9005 22.7835 54.9327 22.7522 54.9327 22.7142V22.5335C54.9327 22.4954 54.9005 22.4655 54.8613 22.4655H54.5854Z" fill="#231F20"/>
<path d="M11.6625 15.4785C5.3191 15.4785 0.176758 20.6209 0.176758 26.9643V54.0885C0.176758 63.1405 7.51481 70.4785 16.5668 70.4785H281.787C290.839 70.4785 298.177 63.1405 298.177 54.0885V31.8685C298.177 22.8166 290.839 15.4785 281.787 15.4785H75.5421" stroke="black" stroke-width="0.352693"/>
</svg>
